<svg width="155" height="155" viewBox="0 0 155 155" fill="none" xmlns="http://www.w3.org/2000/svg">
<g clip-path="url(#clip0_109_84)">
<rect width="11.9048" height="11.9048" stroke="white" stroke-opacity="0.06" stroke-width="0.238095"/>
<rect x="11.9048" width="11.9048" height="11.9048" stroke="white" stroke-opacity="0.06" stroke-width="0.238095"/>
<rect x="23.8095" width="11.9048" height="11.9048" stroke="white" stroke-opacity="0.06" stroke-width="0.238095"/>
<rect x="35.7143" width="11.9048" height="11.9048" stroke="white" stroke-opacity="0.06" stroke-width="0.238095"/>
<rect x="47.619" width="11.9048" height="11.9048" stroke="white" stroke-opacity="0.06" stroke-width="0.238095"/>
<rect x="59.5238" width="11.9048" height="11.9048" stroke="white" stroke-opacity="0.06" stroke-width="0.238095"/>
<rect x="71.4286" width="11.9048" height="11.9048" stroke="white" stroke-opacity="0.06" stroke-width="0.238095"/>
<rect x="83.3333" width="11.9048" height="11.9048" stroke="white" stroke-opacity="0.06" stroke-width="0.238095"/>
<rect x="95.2381" width="11.9048" height="11.9048" stroke="white" stroke-opacity="0.06" stroke-width="0.238095"/>
<rect x="107.143" width="11.9048" height="11.9048" stroke="white" stroke-opacity="0.06" stroke-width="0.238095"/>
<rect x="119.048" width="11.9048" height="11.9048" stroke="white" stroke-opacity="0.06" stroke-width="0.238095"/>
<rect x="130.952" width="11.9048" height="11.9048" stroke="white" stroke-opacity="0.06" stroke-width="0.238095"/>
<rect x="142.857" width="11.9048" height="11.9048" stroke="white" stroke-opacity="0.06" stroke-width="0.238095"/>
<rect y="11.9048" width="11.9048" height="11.9048" stroke="white" stroke-opacity="0.06" stroke-width="0.238095"/>
<rect x="11.9048" y="11.9048" width="11.9048" height="11.9048" stroke="white" stroke-opacity="0.06" stroke-width="0.238095"/>
<rect x="23.8095" y="11.9048" width="11.9048" height="11.9048" fill="white" fill-opacity="0.05" stroke="white" stroke-opacity="0.06" stroke-width="0.238095"/>
<rect x="35.7143" y="11.9048" width="11.9048" height="11.9048" stroke="white" stroke-opacity="0.06" stroke-width="0.238095"/>
<rect x="47.619" y="11.9048" width="11.9048" height="11.9048" stroke="white" stroke-opacity="0.06" stroke-width="0.238095"/>
<rect x="59.5238" y="11.9048" width="11.9048" height="11.9048" stroke="white" stroke-opacity="0.06" stroke-width="0.238095"/>
<rect x="71.4286" y="11.9048" width="11.9048" height="11.9048" stroke="white" stroke-opacity="0.06" stroke-width="0.238095"/>
<rect x="83.3333" y="11.9048" width="11.9048" height="11.9048" stroke="white" stroke-opacity="0.06" stroke-width="0.238095"/>
<rect x="95.2381" y="11.9048" width="11.9048" height="11.9048" stroke="white" stroke-opacity="0.06" stroke-width="0.238095"/>
<rect x="107.143" y="11.9048" width="11.9048" height="11.9048" fill="white" fill-opacity="0.05" stroke="white" stroke-opacity="0.06" stroke-width="0.238095"/>
<rect x="119.048" y="11.9048" width="11.9048" height="11.9048" stroke="white" stroke-opacity="0.06" stroke-width="0.238095"/>
<rect x="130.952" y="11.9048" width="11.9048" height="11.9048" stroke="white" stroke-opacity="0.06" stroke-width="0.238095"/>
<rect x="142.857" y="11.9048" width="11.9048" height="11.9048" stroke="white" stroke-opacity="0.06" stroke-width="0.238095"/>
<rect y="23.8096" width="11.9048" height="11.9048" stroke="white" stroke-opacity="0.06" stroke-width="0.238095"/>
<rect x="11.9048" y="23.8096" width="11.9048" height="11.9048" stroke="white" stroke-opacity="0.06" stroke-width="0.238095"/>
<rect x="23.8095" y="23.8096" width="11.9048" height="11.9048" stroke="white" stroke-opacity="0.06" stroke-width="0.238095"/>
<rect x="35.7143" y="23.8096" width="11.9048" height="11.9048" stroke="white" stroke-opacity="0.06" stroke-width="0.238095"/>
<rect x="47.619" y="23.8096" width="11.9048" height="11.9048" stroke="white" stroke-opacity="0.06" stroke-width="0.238095"/>
<rect x="59.5238" y="23.8096" width="11.9048" height="11.9048" stroke="white" stroke-opacity="0.06" stroke-width="0.238095"/>
<rect x="71.4286" y="23.8096" width="11.9048" height="11.9048" stroke="white" stroke-opacity="0.06" stroke-width="0.238095"/>
<rect x="83.3333" y="23.8096" width="11.9048" height="11.9048" stroke="white" stroke-opacity="0.06" stroke-width="0.238095"/>
<rect x="95.2381" y="23.8096" width="11.9048" height="11.9048" stroke="white" stroke-opacity="0.06" stroke-width="0.238095"/>
<rect x="107.143" y="23.8096" width="11.9048" height="11.9048" stroke="white" stroke-opacity="0.06" stroke-width="0.238095"/>
<rect x="119.048" y="23.8096" width="11.9048" height="11.9048" stroke="white" stroke-opacity="0.06" stroke-width="0.238095"/>
<rect x="130.952" y="23.8096" width="11.9048" height="11.9048" stroke="white" stroke-opacity="0.06" stroke-width="0.238095"/>
<rect x="142.857" y="23.8096" width="11.9048" height="11.9048" stroke="white" stroke-opacity="0.06" stroke-width="0.238095"/>
<rect y="35.7142" width="11.9048" height="11.9048" stroke="white" stroke-opacity="0.06" stroke-width="0.238095"/>
<rect x="11.9048" y="35.7142" width="11.9048" height="11.9048" stroke="white" stroke-opacity="0.06" stroke-width="0.238095"/>
<rect x="23.8095" y="35.7142" width="11.9048" height="11.9048" stroke="white" stroke-opacity="0.06" stroke-width="0.238095"/>
<rect x="35.7143" y="35.7142" width="11.9048" height="11.9048" stroke="white" stroke-opacity="0.06" stroke-width="0.238095"/>
<rect x="47.619" y="35.7142" width="11.9048" height="11.9048" stroke="white" stroke-opacity="0.06" stroke-width="0.238095"/>
<rect x="59.5238" y="35.7142" width="11.9048" height="11.9048" stroke="white" stroke-opacity="0.06" stroke-width="0.238095"/>
<rect x="71.4286" y="35.7142" width="11.9048" height="11.9048" stroke="white" stroke-opacity="0.06" stroke-width="0.238095"/>
<rect x="83.3333" y="35.7142" width="11.9048" height="11.9048" stroke="white" stroke-opacity="0.06" stroke-width="0.238095"/>
<rect x="95.2381" y="35.7142" width="11.9048" height="11.9048" stroke="white" stroke-opacity="0.06" stroke-width="0.238095"/>
<rect x="107.143" y="35.7142" width="11.9048" height="11.9048" stroke="white" stroke-opacity="0.06" stroke-width="0.238095"/>
<rect x="119.048" y="35.7142" width="11.9048" height="11.9048" stroke="white" stroke-opacity="0.06" stroke-width="0.238095"/>
<rect x="130.952" y="35.7142" width="11.9048" height="11.9048" stroke="white" stroke-opacity="0.06" stroke-width="0.238095"/>
<rect x="142.857" y="35.7142" width="11.9048" height="11.9048" stroke="white" stroke-opacity="0.06" stroke-width="0.238095"/>
<rect y="47.619" width="11.9048" height="11.9048" stroke="white" stroke-opacity="0.06" stroke-width="0.238095"/>
<rect x="11.9048" y="47.619" width="11.9048" height="11.9048" stroke="white" stroke-opacity="0.06" stroke-width="0.238095"/>
<rect x="23.8095" y="47.619" width="11.9048" height="11.9048" stroke="white" stroke-opacity="0.06" stroke-width="0.238095"/>
<rect x="35.7143" y="47.619" width="11.9048" height="11.9048" fill="white" fill-opacity="0.05" stroke="white" stroke-opacity="0.06" stroke-width="0.238095"/>
<rect x="47.619" y="47.619" width="11.9048" height="11.9048" stroke="white" stroke-opacity="0.06" stroke-width="0.238095"/>
<rect x="59.5238" y="47.619" width="11.9048" height="11.9048" stroke="white" stroke-opacity="0.06" stroke-width="0.238095"/>
<rect x="71.4286" y="47.619" width="11.9048" height="11.9048" stroke="white" stroke-opacity="0.06" stroke-width="0.238095"/>
<rect x="83.3333" y="47.619" width="11.9048" height="11.9048" stroke="white" stroke-opacity="0.06" stroke-width="0.238095"/>
<rect x="95.2381" y="47.619" width="11.9048" height="11.9048" stroke="white" stroke-opacity="0.06" stroke-width="0.238095"/>
<rect x="107.143" y="47.619" width="11.9048" height="11.9048" stroke="white" stroke-opacity="0.06" stroke-width="0.238095"/>
<rect x="119.048" y="47.619" width="11.9048" height="11.9048" stroke="white" stroke-opacity="0.06" stroke-width="0.238095"/>
<rect x="130.952" y="47.619" width="11.9048" height="11.9048" stroke="white" stroke-opacity="0.06" stroke-width="0.238095"/>
<rect x="142.857" y="47.619" width="11.9048" height="11.9048" fill="white" fill-opacity="0.05" stroke="white" stroke-opacity="0.06" stroke-width="0.238095"/>
<rect y="59.5238" width="11.9048" height="11.9048" stroke="white" stroke-opacity="0.06" stroke-width="0.238095"/>
<rect x="11.9048" y="59.5238" width="11.9048" height="11.9048" stroke="white" stroke-opacity="0.06" stroke-width="0.238095"/>
<rect x="23.8095" y="59.5238" width="11.9048" height="11.9048" stroke="white" stroke-opacity="0.06" stroke-width="0.238095"/>
<rect x="35.7143" y="59.5238" width="11.9048" height="11.9048" stroke="white" stroke-opacity="0.06" stroke-width="0.238095"/>
<rect x="47.619" y="59.5238" width="11.9048" height="11.9048" stroke="white" stroke-opacity="0.06" stroke-width="0.238095"/>
<rect x="59.5238" y="59.5238" width="11.9048" height="11.9048" stroke="white" stroke-opacity="0.06" stroke-width="0.238095"/>
<rect x="71.4286" y="59.5238" width="11.9048" height="11.9048" stroke="white" stroke-opacity="0.06" stroke-width="0.238095"/>
<rect x="83.3333" y="59.5238" width="11.9048" height="11.9048" stroke="white" stroke-opacity="0.06" stroke-width="0.238095"/>
<rect x="95.2381" y="59.5238" width="11.9048" height="11.9048" stroke="white" stroke-opacity="0.06" stroke-width="0.238095"/>
<rect x="107.143" y="59.5238" width="11.9048" height="11.9048" stroke="white" stroke-opacity="0.06" stroke-width="0.238095"/>
<rect x="119.048" y="59.5238" width="11.9048" height="11.9048" stroke="white" stroke-opacity="0.06" stroke-width="0.238095"/>
<rect x="130.952" y="59.5238" width="11.9048" height="11.9048" stroke="white" stroke-opacity="0.06" stroke-width="0.238095"/>
<rect x="142.857" y="59.5238" width="11.9048" height="11.9048" stroke="white" stroke-opacity="0.06" stroke-width="0.238095"/>
<rect y="71.4286" width="11.9048" height="11.9048" stroke="white" stroke-opacity="0.06" stroke-width="0.238095"/>
<rect x="11.9048" y="71.4286" width="11.9048" height="11.9048" stroke="white" stroke-opacity="0.06" stroke-width="0.238095"/>
<rect x="23.8095" y="71.4286" width="11.9048" height="11.9048" stroke="white" stroke-opacity="0.06" stroke-width="0.238095"/>
<rect x="35.7143" y="71.4286" width="11.9048" height="11.9048" stroke="white" stroke-opacity="0.06" stroke-width="0.238095"/>
<rect x="47.619" y="71.4286" width="11.9048" height="11.9048" stroke="white" stroke-opacity="0.06" stroke-width="0.238095"/>
<rect x="59.5238" y="71.4286" width="11.9048" height="11.9048" stroke="white" stroke-opacity="0.06" stroke-width="0.238095"/>
<rect x="71.4286" y="71.4286" width="11.9048" height="11.9048" stroke="white" stroke-opacity="0.06" stroke-width="0.238095"/>
<rect x="83.3333" y="71.4286" width="11.9048" height="11.9048" stroke="white" stroke-opacity="0.06" stroke-width="0.238095"/>
<rect x="95.2381" y="71.4286" width="11.9048" height="11.9048" stroke="white" stroke-opacity="0.06" stroke-width="0.238095"/>
<rect x="107.143" y="71.4286" width="11.9048" height="11.9048" stroke="white" stroke-opacity="0.06" stroke-width="0.238095"/>
<rect x="119.048" y="71.4286" width="11.9048" height="11.9048" stroke="white" stroke-opacity="0.06" stroke-width="0.238095"/>
<rect x="130.952" y="71.4286" width="11.9048" height="11.9048" stroke="white" stroke-opacity="0.06" stroke-width="0.238095"/>
<rect x="142.857" y="71.4286" width="11.9048" height="11.9048" stroke="white" stroke-opacity="0.06" stroke-width="0.238095"/>
<rect y="83.3334" width="11.9048" height="11.9048" stroke="white" stroke-opacity="0.06" stroke-width="0.238095"/>
<rect x="11.9048" y="83.3334" width="11.9048" height="11.9048" stroke="white" stroke-opacity="0.06" stroke-width="0.238095"/>
<rect x="23.8095" y="83.3334" width="11.9048" height="11.9048" stroke="white" stroke-opacity="0.06" stroke-width="0.238095"/>
<rect x="35.7143" y="83.3334" width="11.9048" height="11.9048" stroke="white" stroke-opacity="0.06" stroke-width="0.238095"/>
<rect x="47.619" y="83.3334" width="11.9048" height="11.9048" stroke="white" stroke-opacity="0.06" stroke-width="0.238095"/>
<rect x="59.5238" y="83.3334" width="11.9048" height="11.9048" stroke="white" stroke-opacity="0.06" stroke-width="0.238095"/>
<rect x="71.4286" y="83.3334" width="11.9048" height="11.9048" stroke="white" stroke-opacity="0.06" stroke-width="0.238095"/>
<rect x="83.3333" y="83.3334" width="11.9048" height="11.9048" stroke="white" stroke-opacity="0.06" stroke-width="0.238095"/>
<rect x="95.2381" y="83.3334" width="11.9048" height="11.9048" fill="white" fill-opacity="0.05" stroke="white" stroke-opacity="0.06" stroke-width="0.238095"/>
<rect x="107.143" y="83.3334" width="11.9048" height="11.9048" stroke="white" stroke-opacity="0.06" stroke-width="0.238095"/>
<rect x="119.048" y="83.3334" width="11.9048" height="11.9048" stroke="white" stroke-opacity="0.06" stroke-width="0.238095"/>
<rect x="130.952" y="83.3334" width="11.9048" height="11.9048" stroke="white" stroke-opacity="0.06" stroke-width="0.238095"/>
<rect x="142.857" y="83.3334" width="11.9048" height="11.9048" stroke="white" stroke-opacity="0.06" stroke-width="0.238095"/>
<rect y="95.238" width="11.9048" height="11.9048" stroke="white" stroke-opacity="0.06" stroke-width="0.238095"/>
<rect x="11.9048" y="95.238" width="11.9048" height="11.9048" stroke="white" stroke-opacity="0.06" stroke-width="0.238095"/>
<rect x="23.8095" y="95.238" width="11.9048" height="11.9048" stroke="white" stroke-opacity="0.06" stroke-width="0.238095"/>
<rect x="35.7143" y="95.238" width="11.9048" height="11.9048" stroke="white" stroke-opacity="0.06" stroke-width="0.238095"/>
<rect x="47.619" y="95.238" width="11.9048" height="11.9048" fill="white" fill-opacity="0.05" stroke="white" stroke-opacity="0.06" stroke-width="0.238095"/>
<rect x="59.5238" y="95.238" width="11.9048" height="11.9048" stroke="white" stroke-opacity="0.06" stroke-width="0.238095"/>
<rect x="71.4286" y="95.238" width="11.9048" height="11.9048" stroke="white" stroke-opacity="0.06" stroke-width="0.238095"/>
<rect x="83.3333" y="95.238" width="11.9048" height="11.9048" stroke="white" stroke-opacity="0.06" stroke-width="0.238095"/>
<rect x="95.2381" y="95.238" width="11.9048" height="11.9048" stroke="white" stroke-opacity="0.06" stroke-width="0.238095"/>
<rect x="107.143" y="95.238" width="11.9048" height="11.9048" stroke="white" stroke-opacity="0.06" stroke-width="0.238095"/>
<rect x="119.048" y="95.238" width="11.9048" height="11.9048" stroke="white" stroke-opacity="0.06" stroke-width="0.238095"/>
<rect x="130.952" y="95.238" width="11.9048" height="11.9048" stroke="white" stroke-opacity="0.06" stroke-width="0.238095"/>
<rect x="142.857" y="95.238" width="11.9048" height="11.9048" stroke="white" stroke-opacity="0.06" stroke-width="0.238095"/>
<rect y="107.143" width="11.9048" height="11.9048" stroke="white" stroke-opacity="0.06" stroke-width="0.238095"/>
<rect x="11.9048" y="107.143" width="11.9048" height="11.9048" stroke="white" stroke-opacity="0.06" stroke-width="0.238095"/>
<rect x="23.8095" y="107.143" width="11.9048" height="11.9048" stroke="white" stroke-opacity="0.06" stroke-width="0.238095"/>
<rect x="35.7143" y="107.143" width="11.9048" height="11.9048" stroke="white" stroke-opacity="0.06" stroke-width="0.238095"/>
<rect x="47.619" y="107.143" width="11.9048" height="11.9048" stroke="white" stroke-opacity="0.06" stroke-width="0.238095"/>
<rect x="59.5238" y="107.143" width="11.9048" height="11.9048" stroke="white" stroke-opacity="0.06" stroke-width="0.238095"/>
<rect x="71.4286" y="107.143" width="11.9048" height="11.9048" stroke="white" stroke-opacity="0.06" stroke-width="0.238095"/>
<rect x="83.3333" y="107.143" width="11.9048" height="11.9048" stroke="white" stroke-opacity="0.06" stroke-width="0.238095"/>
<rect x="95.2381" y="107.143" width="11.9048" height="11.9048" stroke="white" stroke-opacity="0.06" stroke-width="0.238095"/>
<rect x="107.143" y="107.143" width="11.9048" height="11.9048" stroke="white" stroke-opacity="0.06" stroke-width="0.238095"/>
<rect x="119.048" y="107.143" width="11.9048" height="11.9048" stroke="white" stroke-opacity="0.06" stroke-width="0.238095"/>
<rect x="130.952" y="107.143" width="11.9048" height="11.9048" stroke="white" stroke-opacity="0.06" stroke-width="0.238095"/>
<rect x="142.857" y="107.143" width="11.9048" height="11.9048" stroke="white" stroke-opacity="0.06" stroke-width="0.238095"/>
<rect y="119.048" width="11.9048" height="11.9048" stroke="white" stroke-opacity="0.06" stroke-width="0.238095"/>
<rect x="11.9048" y="119.048" width="11.9048" height="11.9048" stroke="white" stroke-opacity="0.06" stroke-width="0.238095"/>
<rect x="23.8095" y="119.048" width="11.9048" height="11.9048" stroke="white" stroke-opacity="0.06" stroke-width="0.238095"/>
<rect x="35.7143" y="119.048" width="11.9048" height="11.9048" stroke="white" stroke-opacity="0.06" stroke-width="0.238095"/>
<rect x="47.619" y="119.048" width="11.9048" height="11.9048" stroke="white" stroke-opacity="0.06" stroke-width="0.238095"/>
<rect x="59.5238" y="119.048" width="11.9048" height="11.9048" stroke="white" stroke-opacity="0.06" stroke-width="0.238095"/>
<rect x="71.4286" y="119.048" width="11.9048" height="11.9048" stroke="white" stroke-opacity="0.06" stroke-width="0.238095"/>
<rect x="83.3333" y="119.048" width="11.9048" height="11.9048" stroke="white" stroke-opacity="0.06" stroke-width="0.238095"/>
<rect x="95.2381" y="119.048" width="11.9048" height="11.9048" stroke="white" stroke-opacity="0.06" stroke-width="0.238095"/>
<rect x="107.143" y="119.048" width="11.9048" height="11.9048" stroke="white" stroke-opacity="0.06" stroke-width="0.238095"/>
<rect x="119.048" y="119.048" width="11.9048" height="11.9048" stroke="white" stroke-opacity="0.06" stroke-width="0.238095"/>
<rect x="130.952" y="119.048" width="11.9048" height="11.9048" stroke="white" stroke-opacity="0.06" stroke-width="0.238095"/>
<rect x="142.857" y="119.048" width="11.9048" height="11.9048" stroke="white" stroke-opacity="0.06" stroke-width="0.238095"/>
<rect y="130.952" width="11.9048" height="11.9048" stroke="white" stroke-opacity="0.06" stroke-width="0.238095"/>
<rect x="11.9048" y="130.952" width="11.9048" height="11.9048" stroke="white" stroke-opacity="0.06" stroke-width="0.238095"/>
<rect x="23.8095" y="130.952" width="11.9048" height="11.9048" stroke="white" stroke-opacity="0.06" stroke-width="0.238095"/>
<rect x="35.7143" y="130.952" width="11.9048" height="11.9048" stroke="white" stroke-opacity="0.06" stroke-width="0.238095"/>
<rect x="47.619" y="130.952" width="11.9048" height="11.9048" stroke="white" stroke-opacity="0.06" stroke-width="0.238095"/>
<rect x="59.5238" y="130.952" width="11.9048" height="11.9048" stroke="white" stroke-opacity="0.06" stroke-width="0.238095"/>
<rect x="71.4286" y="130.952" width="11.9048" height="11.9048" stroke="white" stroke-opacity="0.06" stroke-width="0.238095"/>
<rect x="83.3333" y="130.952" width="11.9048" height="11.9048" stroke="white" stroke-opacity="0.06" stroke-width="0.238095"/>
<rect x="95.2381" y="130.952" width="11.9048" height="11.9048" stroke="white" stroke-opacity="0.06" stroke-width="0.238095"/>
<rect x="107.143" y="130.952" width="11.9048" height="11.9048" stroke="white" stroke-opacity="0.06" stroke-width="0.238095"/>
<rect x="119.048" y="130.952" width="11.9048" height="11.9048" stroke="white" stroke-opacity="0.06" stroke-width="0.238095"/>
<rect x="130.952" y="130.952" width="11.9048" height="11.9048" stroke="white" stroke-opacity="0.06" stroke-width="0.238095"/>
<rect x="142.857" y="130.952" width="11.9048" height="11.9048" stroke="white" stroke-opacity="0.06" stroke-width="0.238095"/>
<rect y="142.857" width="11.9048" height="11.9048" stroke="white" stroke-opacity="0.06" stroke-width="0.238095"/>
<rect x="11.9048" y="142.857" width="11.9048" height="11.9048" stroke="white" stroke-opacity="0.06" stroke-width="0.238095"/>
<rect x="23.8095" y="142.857" width="11.9048" height="11.9048" stroke="white" stroke-opacity="0.06" stroke-width="0.238095"/>
<rect x="35.7143" y="142.857" width="11.9048" height="11.9048" stroke="white" stroke-opacity="0.06" stroke-width="0.238095"/>
<rect x="47.619" y="142.857" width="11.9048" height="11.9048" stroke="white" stroke-opacity="0.06" stroke-width="0.238095"/>
<rect x="59.5238" y="142.857" width="11.9048" height="11.9048" stroke="white" stroke-opacity="0.06" stroke-width="0.238095"/>
<rect x="71.4286" y="142.857" width="11.9048" height="11.9048" stroke="white" stroke-opacity="0.06" stroke-width="0.238095"/>
<rect x="83.3333" y="142.857" width="11.9048" height="11.9048" stroke="white" stroke-opacity="0.06" stroke-width="0.238095"/>
<rect x="95.2381" y="142.857" width="11.9048" height="11.9048" stroke="white" stroke-opacity="0.06" stroke-width="0.238095"/>
<rect x="107.143" y="142.857" width="11.9048" height="11.9048" stroke="white" stroke-opacity="0.06" stroke-width="0.238095"/>
<rect x="119.048" y="142.857" width="11.9048" height="11.9048" stroke="white" stroke-opacity="0.06" stroke-width="0.238095"/>
<rect x="130.952" y="142.857" width="11.9048" height="11.9048" stroke="white" stroke-opacity="0.06" stroke-width="0.238095"/>
<rect x="142.857" y="142.857" width="11.9048" height="11.9048" stroke="white" stroke-opacity="0.06" stroke-width="0.238095"/>
</g>
<defs>
<clipPath id="clip0_109_84">
<rect width="155" height="155" fill="white"/>
</clipPath>
</defs>
</svg>
