<svg xmlns="http://www.w3.org/2000/svg" width="155" height="155" fill="none" xmlns:v="https://vecta.io/nano"><style><![CDATA[.B{stroke-opacity:.06}.C{fill:#fff}.D{fill-opacity:.05}]]></style><g clip-path="url(#A)" stroke="#fff" stroke-width=".238" class="B"><use href="#B"/><use href="#C"/><use href="#D"/><use href="#E"/><use href="#F"/><use href="#G"/><use href="#H"/><use href="#I"/><use href="#J"/><use href="#K"/><path d="M119.048 0h11.905v11.905h-11.905z"/><path d="M130.952 0h11.905v11.905h-11.905z"/><path d="M142.857 0h11.905v11.905h-11.905zM0 11.905h11.905V23.81H0z"/><path d="M11.905 11.905H23.81V23.81H11.905z"/><path d="M23.809 11.905h11.905V23.81H23.809z" class="C D"/><path d="M35.714 11.905h11.905V23.81H35.714z"/><path d="M47.619 11.905h11.905V23.81H47.619z"/><path d="M59.524 11.905h11.905V23.81H59.524z"/><path d="M71.429 11.905h11.905V23.81H71.429z"/><path d="M83.333 11.905h11.905V23.81H83.333z"/><path d="M95.238 11.905h11.905V23.81H95.238z"/><use href="#L" class="C D"/><path d="M119.048 11.905h11.905V23.81h-11.905z"/><path d="M130.952 11.905h11.905V23.81h-11.905z"/><path d="M142.857 11.905h11.905V23.81h-11.905zM0 23.81h11.905v11.905H0z"/><path d="M11.905 23.81H23.81v11.905H11.905z"/><path d="M23.809 23.81h11.905v11.905H23.809z"/><path d="M35.714 23.81h11.905v11.905H35.714z"/><path d="M47.619 23.81h11.905v11.905H47.619z"/><path d="M59.524 23.81h11.905v11.905H59.524z"/><path d="M71.429 23.81h11.905v11.905H71.429z"/><path d="M83.333 23.81h11.905v11.905H83.333z"/><path d="M95.238 23.81h11.905v11.905H95.238z"/><path d="M107.143 23.81h11.905v11.905h-11.905z"/><path d="M119.048 23.81h11.905v11.905h-11.905z"/><path d="M130.952 23.81h11.905v11.905h-11.905z"/><path d="M142.857 23.81h11.905v11.905h-11.905zM0 35.714h11.905v11.905H0z"/><path d="M11.905 35.714H23.81v11.905H11.905z"/><path d="M23.809 35.714h11.905v11.905H23.809z"/><path d="M35.714 35.714h11.905v11.905H35.714z"/><path d="M47.619 35.714h11.905v11.905H47.619z"/><path d="M59.524 35.714h11.905v11.905H59.524z"/><path d="M71.429 35.714h11.905v11.905H71.429z"/><path d="M83.333 35.714h11.905v11.905H83.333z"/><path d="M95.238 35.714h11.905v11.905H95.238z"/><path d="M107.143 35.714h11.905v11.905h-11.905z"/><path d="M119.048 35.714h11.905v11.905h-11.905z"/><path d="M130.952 35.714h11.905v11.905h-11.905z"/><path d="M142.857 35.714h11.905v11.905h-11.905zM0 47.619h11.905v11.905H0z"/><path d="M11.905 47.619H23.81v11.905H11.905z"/><path d="M23.809 47.619h11.905v11.905H23.809z"/><path d="M35.714 47.619h11.905v11.905H35.714z" class="C D"/><path d="M47.619 47.619h11.905v11.905H47.619z"/><path d="M59.524 47.619h11.905v11.905H59.524z"/><path d="M71.429 47.619h11.905v11.905H71.429z"/><path d="M83.333 47.619h11.905v11.905H83.333z"/><path d="M95.238 47.619h11.905v11.905H95.238z"/><path d="M107.143 47.619h11.905v11.905h-11.905z"/><path d="M119.048 47.619h11.905v11.905h-11.905z"/><path d="M130.952 47.619h11.905v11.905h-11.905z"/><path d="M142.857 47.619h11.905v11.905h-11.905z" class="C D"/><path d="M0 59.524h11.905v11.905H0z"/><path d="M11.905 59.524H23.81v11.905H11.905z"/><path d="M23.809 59.524h11.905v11.905H23.809z"/><path d="M35.714 59.524h11.905v11.905H35.714z"/><path d="M47.619 59.524h11.905v11.905H47.619z"/><path d="M59.524 59.524h11.905v11.905H59.524z"/><path d="M71.429 59.524h11.905v11.905H71.429z"/><path d="M83.333 59.524h11.905v11.905H83.333z"/><path d="M95.238 59.524h11.905v11.905H95.238z"/><path d="M107.143 59.524h11.905v11.905h-11.905z"/><path d="M119.048 59.524h11.905v11.905h-11.905z"/><path d="M130.952 59.524h11.905v11.905h-11.905z"/><path d="M142.857 59.524h11.905v11.905h-11.905zM0 71.429h11.905v11.905H0z"/><path d="M11.905 71.429H23.81v11.905H11.905z"/><path d="M23.809 71.429h11.905v11.905H23.809z"/><path d="M35.714 71.429h11.905v11.905H35.714z"/><path d="M47.619 71.429h11.905v11.905H47.619z"/><path d="M59.524 71.429h11.905v11.905H59.524z"/><path d="M71.429 71.429h11.905v11.905H71.429z"/><path d="M83.333 71.429h11.905v11.905H83.333z"/><path d="M95.238 71.429h11.905v11.905H95.238z"/><path d="M107.143 71.429h11.905v11.905h-11.905z"/><path d="M119.048 71.429h11.905v11.905h-11.905z"/><path d="M130.952 71.429h11.905v11.905h-11.905z"/><path d="M142.857 71.429h11.905v11.905h-11.905zM0 83.333h11.905v11.905H0z"/><path d="M11.905 83.333H23.81v11.905H11.905z"/><path d="M23.809 83.333h11.905v11.905H23.809z"/><path d="M35.714 83.333h11.905v11.905H35.714z"/><path d="M47.619 83.333h11.905v11.905H47.619z"/><path d="M59.524 83.333h11.905v11.905H59.524z"/><path d="M71.429 83.333h11.905v11.905H71.429z"/><path d="M83.333 83.333h11.905v11.905H83.333z"/><path d="M95.238 83.333h11.905v11.905H95.238z" class="C D"/><path d="M107.143 83.333h11.905v11.905h-11.905z"/><path d="M119.048 83.333h11.905v11.905h-11.905z"/><path d="M130.952 83.333h11.905v11.905h-11.905z"/><path d="M142.857 83.333h11.905v11.905h-11.905zM0 95.238h11.905v11.905H0z"/><path d="M11.905 95.238H23.81v11.905H11.905z"/><path d="M23.809 95.238h11.905v11.905H23.809z"/><path d="M35.714 95.238h11.905v11.905H35.714z"/><path d="M47.619 95.238h11.905v11.905H47.619z" class="C D"/><path d="M59.524 95.238h11.905v11.905H59.524z"/><path d="M71.429 95.238h11.905v11.905H71.429z"/><path d="M83.333 95.238h11.905v11.905H83.333z"/><path d="M95.238 95.238h11.905v11.905H95.238z"/><path d="M107.143 95.238h11.905v11.905h-11.905z"/><path d="M119.048 95.238h11.905v11.905h-11.905z"/><path d="M130.952 95.238h11.905v11.905h-11.905z"/><path d="M142.857 95.238h11.905v11.905h-11.905zM0 107.143h11.905v11.905H0z"/><path d="M11.905 107.143H23.81v11.905H11.905z"/><path d="M23.809 107.143h11.905v11.905H23.809z"/><path d="M35.714 107.143h11.905v11.905H35.714z"/><path d="M47.619 107.143h11.905v11.905H47.619z"/><path d="M59.524 107.143h11.905v11.905H59.524z"/><path d="M71.429 107.143h11.905v11.905H71.429z"/><path d="M83.333 107.143h11.905v11.905H83.333z"/><path d="M95.238 107.143h11.905v11.905H95.238z"/><path d="M107.143 107.143h11.905v11.905h-11.905z"/><path d="M119.048 107.143h11.905v11.905h-11.905z"/><path d="M130.952 107.143h11.905v11.905h-11.905z"/><path d="M142.857 107.143h11.905v11.905h-11.905zM0 119.048h11.905v11.905H0z"/><path d="M11.905 119.048H23.81v11.905H11.905z"/><path d="M23.809 119.048h11.905v11.905H23.809z"/><path d="M35.714 119.048h11.905v11.905H35.714z"/><path d="M47.619 119.048h11.905v11.905H47.619z"/><path d="M59.524 119.048h11.905v11.905H59.524z"/><path d="M71.429 119.048h11.905v11.905H71.429z"/><path d="M83.333 119.048h11.905v11.905H83.333z"/><path d="M95.238 119.048h11.905v11.905H95.238z"/><path d="M107.143 119.048h11.905v11.905h-11.905z"/><path d="M119.048 119.048h11.905v11.905h-11.905z"/><path d="M130.952 119.048h11.905v11.905h-11.905z"/><path d="M142.857 119.048h11.905v11.905h-11.905zM0 130.952h11.905v11.905H0z"/><path d="M11.905 130.952H23.81v11.905H11.905z"/><path d="M23.809 130.952h11.905v11.905H23.809z"/><path d="M35.714 130.952h11.905v11.905H35.714z"/><path d="M47.619 130.952h11.905v11.905H47.619z"/><path d="M59.524 130.952h11.905v11.905H59.524z"/><path d="M71.429 130.952h11.905v11.905H71.429z"/><path d="M83.333 130.952h11.905v11.905H83.333z"/><path d="M95.238 130.952h11.905v11.905H95.238z"/><path d="M107.143 130.952h11.905v11.905h-11.905z"/><path d="M119.048 130.952h11.905v11.905h-11.905z"/><path d="M130.952 130.952h11.905v11.905h-11.905z"/><path d="M142.857 130.952h11.905v11.905h-11.905zM0 142.857h11.905v11.905H0z"/><path d="M11.905 142.857H23.81v11.905H11.905z"/><path d="M23.809 142.857h11.905v11.905H23.809z"/><path d="M35.714 142.857h11.905v11.905H35.714z"/><path d="M47.619 142.857h11.905v11.905H47.619z"/><path d="M59.524 142.857h11.905v11.905H59.524z"/><path d="M71.429 142.857h11.905v11.905H71.429z"/><path d="M83.333 142.857h11.905v11.905H83.333z"/><path d="M95.238 142.857h11.905v11.905H95.238z"/><path d="M107.143 142.857h11.905v11.905h-11.905z"/><path d="M119.048 142.857h11.905v11.905h-11.905z"/><path d="M130.952 142.857h11.905v11.905h-11.905z"/><path d="M142.857 142.857h11.905v11.905h-11.905z"/></g><defs><clipPath id="A"><path d="M0 0h155v155H0z" class="C"/></clipPath><path id="B" d="M0 0h11.905v11.905H0z"/><path id="C" d="M11.905 0H23.81v11.905H11.905z"/><path id="D" d="M23.809 0h11.905v11.905H23.809z"/><path id="E" d="M35.714 0h11.905v11.905H35.714z"/><path id="F" d="M47.619 0h11.905v11.905H47.619z"/><path id="G" d="M59.524 0h11.905v11.905H59.524z"/><path id="H" d="M71.429 0h11.905v11.905H71.429z"/><path id="I" d="M83.333 0h11.905v11.905H83.333z"/><path id="J" d="M95.238 0h11.905v11.905H95.238z"/><path id="K" d="M107.143 0h11.905v11.905h-11.905z"/><path id="L" d="M107.143 11.905h11.905V23.81h-11.905z"/></defs></svg>