<svg xmlns="http://www.w3.org/2000/svg" width="155" height="155" fill="none" xmlns:v="https://vecta.io/nano"><style><![CDATA[.B{stroke-opacity:.06}]]></style><g clip-path="url(#A)" stroke="#fff" stroke-width=".238" class="B"><use href="#B"/><use href="#C"/><use href="#D"/><use href="#E"/><use href="#F"/><use href="#G"/><use href="#H"/><use href="#I"/><use href="#J"/><use href="#K"/><path d="M119.047 0h11.905v11.905h-11.905z"/><path d="M130.953 0h11.905v11.905h-11.905z"/><path d="M142.855 0h11.905v11.905h-11.905zM0 11.905h11.905V23.81H0z"/><path d="M11.906 11.905h11.905V23.81H11.906z"/><path d="M23.809 11.905h11.905V23.81H23.809z"/><path d="M35.715 11.905H47.62V23.81H35.715z"/><path d="M47.617 11.905h11.905V23.81H47.617z"/><path d="M59.523 11.905h11.905V23.81H59.523z"/><path d="M71.43 11.905h11.905V23.81H71.43z"/><path d="M83.332 11.905h11.905V23.81H83.332z"/><path d="M95.238 11.905h11.905V23.81H95.238z"/><use href="#L"/><path d="M119.047 11.905h11.905V23.81h-11.905z"/><path d="M130.953 11.905h11.905V23.81h-11.905z"/><path d="M142.855 11.905h11.905V23.81h-11.905zM0 23.81h11.905v11.905H0z"/><path d="M11.906 23.81h11.905v11.905H11.906z"/><path d="M23.809 23.81h11.905v11.905H23.809z"/><path d="M35.715 23.81H47.62v11.905H35.715z"/><path d="M47.617 23.81h11.905v11.905H47.617z"/><path d="M59.523 23.81h11.905v11.905H59.523z"/><path d="M71.43 23.81h11.905v11.905H71.43z"/><path d="M83.332 23.81h11.905v11.905H83.332z"/><path d="M95.238 23.81h11.905v11.905H95.238z"/><path d="M107.145 23.81h11.905v11.905h-11.905z"/><path d="M119.047 23.81h11.905v11.905h-11.905z"/><path d="M130.953 23.81h11.905v11.905h-11.905z"/><path d="M142.855 23.81h11.905v11.905h-11.905zM0 35.714h11.905v11.905H0z"/><path d="M11.906 35.714h11.905v11.905H11.906z"/><path d="M23.809 35.714h11.905v11.905H23.809z"/><path d="M35.715 35.714H47.62v11.905H35.715z"/><path d="M47.617 35.714h11.905v11.905H47.617z"/><path d="M59.523 35.714h11.905v11.905H59.523z"/><path d="M71.43 35.714h11.905v11.905H71.43z"/><path d="M83.332 35.714h11.905v11.905H83.332z"/><path d="M95.238 35.714h11.905v11.905H95.238z"/><path d="M107.145 35.714h11.905v11.905h-11.905z"/><path d="M119.047 35.714h11.905v11.905h-11.905z"/><path d="M130.953 35.714h11.905v11.905h-11.905z"/><path d="M142.855 35.714h11.905v11.905h-11.905zM0 47.619h11.905v11.905H0z"/><path d="M11.906 47.619h11.905v11.905H11.906z"/><path d="M23.809 47.619h11.905v11.905H23.809z"/><path d="M35.715 47.619H47.62v11.905H35.715z"/><path d="M47.617 47.619h11.905v11.905H47.617z"/><path d="M59.523 47.619h11.905v11.905H59.523z"/><path d="M71.43 47.619h11.905v11.905H71.43z"/><path d="M83.332 47.619h11.905v11.905H83.332z"/><path d="M95.238 47.619h11.905v11.905H95.238z"/><path d="M107.145 47.619h11.905v11.905h-11.905z"/><path d="M119.047 47.619h11.905v11.905h-11.905z"/><path d="M130.953 47.619h11.905v11.905h-11.905z"/><path d="M142.855 47.619h11.905v11.905h-11.905zM0 59.524h11.905v11.905H0z"/><path d="M11.906 59.524h11.905v11.905H11.906z"/><path d="M23.809 59.524h11.905v11.905H23.809z"/><path d="M35.715 59.524H47.62v11.905H35.715z"/><path d="M47.617 59.524h11.905v11.905H47.617z"/><path d="M59.523 59.524h11.905v11.905H59.523z"/><path d="M71.43 59.524h11.905v11.905H71.43z"/><path d="M83.332 59.524h11.905v11.905H83.332z"/><path d="M95.238 59.524h11.905v11.905H95.238z"/><path d="M107.145 59.524h11.905v11.905h-11.905z"/><path d="M119.047 59.524h11.905v11.905h-11.905z"/><path d="M130.953 59.524h11.905v11.905h-11.905z"/><path d="M142.855 59.524h11.905v11.905h-11.905zM0 71.429h11.905v11.905H0z"/><path d="M11.906 71.429h11.905v11.905H11.906z"/><path d="M23.809 71.429h11.905v11.905H23.809z"/><path d="M35.715 71.429H47.62v11.905H35.715z"/><path d="M47.617 71.429h11.905v11.905H47.617z"/><path d="M59.523 71.429h11.905v11.905H59.523z"/><path d="M71.43 71.429h11.905v11.905H71.43z"/><path d="M83.332 71.429h11.905v11.905H83.332z"/><path d="M95.238 71.429h11.905v11.905H95.238z"/><path d="M107.145 71.429h11.905v11.905h-11.905z"/><path d="M119.047 71.429h11.905v11.905h-11.905z"/><path d="M130.953 71.429h11.905v11.905h-11.905z"/><path d="M142.855 71.429h11.905v11.905h-11.905zM0 83.333h11.905v11.905H0z"/><path d="M11.906 83.333h11.905v11.905H11.906z"/><path d="M23.809 83.333h11.905v11.905H23.809z"/><path d="M35.715 83.333H47.62v11.905H35.715z"/><path d="M47.617 83.333h11.905v11.905H47.617z"/><path d="M59.523 83.333h11.905v11.905H59.523z"/><path d="M71.43 83.333h11.905v11.905H71.43z"/><path d="M83.332 83.333h11.905v11.905H83.332z"/><path d="M95.238 83.333h11.905v11.905H95.238z"/><path d="M107.145 83.333h11.905v11.905h-11.905z"/><path d="M119.047 83.333h11.905v11.905h-11.905z"/><path d="M130.953 83.333h11.905v11.905h-11.905z"/><path d="M142.855 83.333h11.905v11.905h-11.905zM0 95.238h11.905v11.905H0z"/><path d="M11.906 95.238h11.905v11.905H11.906z"/><path d="M23.809 95.238h11.905v11.905H23.809z"/><path d="M35.715 95.238H47.62v11.905H35.715z"/><path d="M47.617 95.238h11.905v11.905H47.617z"/><path d="M59.523 95.238h11.905v11.905H59.523z"/><path d="M71.43 95.238h11.905v11.905H71.43z"/><path d="M83.332 95.238h11.905v11.905H83.332z"/><path d="M95.238 95.238h11.905v11.905H95.238z"/><path d="M107.145 95.238h11.905v11.905h-11.905z"/><path d="M119.047 95.238h11.905v11.905h-11.905z"/><path d="M130.953 95.238h11.905v11.905h-11.905z"/><path d="M142.855 95.238h11.905v11.905h-11.905zM0 107.143h11.905v11.905H0z"/><path d="M11.906 107.143h11.905v11.905H11.906z"/><path d="M23.809 107.143h11.905v11.905H23.809z"/><path d="M35.715 107.143H47.62v11.905H35.715z"/><path d="M47.617 107.143h11.905v11.905H47.617z"/><path d="M59.523 107.143h11.905v11.905H59.523z"/><path d="M71.43 107.143h11.905v11.905H71.43z"/><path d="M83.332 107.143h11.905v11.905H83.332z"/><path d="M95.238 107.143h11.905v11.905H95.238z"/><path d="M107.145 107.143h11.905v11.905h-11.905z"/><path d="M119.047 107.143h11.905v11.905h-11.905z"/><path d="M130.953 107.143h11.905v11.905h-11.905z"/><path d="M142.855 107.143h11.905v11.905h-11.905zM0 119.048h11.905v11.905H0z"/><path d="M11.906 119.048h11.905v11.905H11.906z"/><path d="M23.809 119.048h11.905v11.905H23.809z"/><path d="M35.715 119.048H47.62v11.905H35.715z"/><path d="M47.617 119.048h11.905v11.905H47.617z"/><path d="M59.523 119.048h11.905v11.905H59.523z"/><path d="M71.43 119.048h11.905v11.905H71.43z"/><path d="M83.332 119.048h11.905v11.905H83.332z"/><path d="M95.238 119.048h11.905v11.905H95.238z"/><path d="M107.145 119.048h11.905v11.905h-11.905z"/><path d="M119.047 119.048h11.905v11.905h-11.905z"/><path d="M130.953 119.048h11.905v11.905h-11.905z"/><path d="M142.855 119.048h11.905v11.905h-11.905zM0 130.952h11.905v11.905H0z"/><path d="M11.906 130.952h11.905v11.905H11.906z"/><path d="M23.809 130.952h11.905v11.905H23.809z"/><path d="M35.715 130.952H47.62v11.905H35.715z"/><path d="M47.617 130.952h11.905v11.905H47.617z"/><path d="M59.523 130.952h11.905v11.905H59.523z"/><path d="M71.43 130.952h11.905v11.905H71.43z"/><path d="M83.332 130.952h11.905v11.905H83.332z"/><path d="M95.238 130.952h11.905v11.905H95.238z"/><path d="M107.145 130.952h11.905v11.905h-11.905z"/><path d="M119.047 130.952h11.905v11.905h-11.905z"/><path d="M130.953 130.952h11.905v11.905h-11.905z"/><path d="M142.855 130.952h11.905v11.905h-11.905zM0 142.857h11.905v11.905H0z"/><path d="M11.906 142.857h11.905v11.905H11.906z"/><path d="M23.809 142.857h11.905v11.905H23.809z"/><path d="M35.715 142.857H47.62v11.905H35.715z"/><path d="M47.617 142.857h11.905v11.905H47.617z"/><path d="M59.523 142.857h11.905v11.905H59.523z"/><path d="M71.43 142.857h11.905v11.905H71.43z"/><path d="M83.332 142.857h11.905v11.905H83.332z"/><path d="M95.238 142.857h11.905v11.905H95.238z"/><path d="M107.145 142.857h11.905v11.905h-11.905z"/><path d="M119.047 142.857h11.905v11.905h-11.905z"/><path d="M130.953 142.857h11.905v11.905h-11.905z"/><path d="M142.855 142.857h11.905v11.905h-11.905z"/></g><g fill="#2b2b2b"><path d="M82.452 41.775c-1.884-.505-3.004-2.456-2.497-4.35s2.453-3.023 4.337-2.519 3.004 2.456 2.497 4.35-2.453 3.023-4.337 2.519zm1.352-5.046c-.884-.237-1.798.293-2.036 1.182s.287 1.805 1.172 2.042 1.798-.293 2.036-1.182-.287-1.805-1.172-2.042zm-8.181 30.534c-1.884-.505-3.004-2.456-2.497-4.35s2.453-3.023 4.337-2.519 3.004 2.456 2.497 4.35-2.453 3.023-4.337 2.519zm1.352-5.046c-.884-.237-1.798.293-2.036 1.182s.287 1.805 1.172 2.042 1.798-.293 2.036-1.183-.287-1.805-1.172-2.042zm14.657-4.323c-1.884-.505-3.004-2.456-2.497-4.35s2.453-3.023 4.337-2.519 3.004 2.456 2.497 4.35-2.453 3.024-4.337 2.519zm1.352-5.046c-.884-.237-1.798.293-2.036 1.182s.287 1.805 1.172 2.042 1.798-.293 2.036-1.182-.287-1.805-1.172-2.042zM66.42 51.23c-1.884-.505-3.004-2.456-2.497-4.35s2.453-3.024 4.337-2.519 3.004 2.456 2.497 4.35-2.453 3.023-4.337 2.519zm1.352-5.047c-.884-.237-1.798.293-2.036 1.183s.287 1.805 1.172 2.042 1.798-.293 2.036-1.182-.288-1.805-1.172-2.042zm3.595 12.681a3.24 3.24 0 0 1-1.986-1.53c-.436-.76-.551-1.646-.324-2.495s.77-1.559 1.528-1.999l15.429-8.959c.758-.44 1.64-.558 2.485-.332a3.24 3.24 0 0 1 1.986 1.53c.436.76.552 1.646.324 2.495s-.77 1.559-1.528 1.998l-15.428 8.959c-.758.44-1.641.558-2.485.332zm16.643-13.492c-.361-.097-.737-.046-1.06.142l-15.429 8.959a1.4 1.4 0 0 0-.514 1.917c.091.16.213.3.358.412a1.38 1.38 0 0 0 .489.241c.36.096.737.046 1.06-.142l15.428-8.959c.159-.092.299-.215.411-.361a1.4 1.4 0 0 0 .241-.492c.097-.362.048-.74-.138-1.064a1.38 1.38 0 0 0-.847-.653z"/><path d="M83.594 62.24a3.24 3.24 0 0 1-1.986-1.53L72.591 45c-.436-.76-.552-1.646-.324-2.495s.77-1.559 1.528-1.998c1.564-.908 3.57-.371 4.471 1.198l9.018 15.711c.436.76.552 1.646.324 2.495s-.77 1.559-1.528 1.999-1.641.557-2.485.331zm-7.803-20.243a1.39 1.39 0 0 0-1.06.141c-.159.092-.299.215-.411.361a1.4 1.4 0 0 0-.103 1.556l9.018 15.711c.186.324.487.556.847.653s.737.046 1.06-.142c.159-.092.299-.215.411-.361a1.4 1.4 0 0 0 .103-1.556l-9.018-15.71a1.39 1.39 0 0 0-.847-.652z"/><path d="M77.024 62.038l-7.963-13.873 13.833-8.033 7.963 13.873-13.833 8.033zm-5.399-13.186l6.09 10.61 10.579-6.144-6.091-10.61-10.579 6.144zm1.649 22.461a25.58 25.58 0 0 0 2.151-5.079l-.889-.238s-2.996 9.656-10.565 9.174l2.663 1.718c2.498-.322 4.731-2.197 6.639-5.574z"/><path d="M75.592 66.278l.165.047c-.007.026-.725 2.59-2.204 5.207-1.825 3.231-4.037 5.189-6.426 5.703l2.055 1.611c4.805-2.938 6.965-12.302 6.987-12.401l.168.033-.746-.2z"/><path d="M77.259 66.725l-.753-.202c-.043.188-.641 2.73-1.852 5.532-1.462 3.383-3.235 5.801-5.167 7.064.843.779 1.479 1.55 1.609 2.182-.001 0 3.454-2.337 6.163-14.575zm6.826-31.048c-.334-.089-.531-.434-.442-.769l1.44-5.373c.09-.335.433-.535.767-.445a.63.63 0 0 1 .442.769l-1.44 5.372c-.09.335-.433.535-.767.445zm26.775 64.998a3.55 3.55 0 0 0 2.497-4.35c-.507-1.894-2.453-3.023-4.337-2.519s-3.004 2.456-2.497 4.35 2.453 3.024 4.337 2.519zm-1.352-5.046a1.67 1.67 0 0 1 2.037 1.182c.238.889-.288 1.805-1.173 2.042s-1.798-.293-2.036-1.182.288-1.805 1.172-2.042zm8.182 30.533c1.884-.504 3.004-2.456 2.497-4.349s-2.454-3.024-4.338-2.519a3.555 3.555 0 1 0 1.841 6.868zm-1.352-5.046a1.67 1.67 0 0 1 2.036 1.183c.238.889-.287 1.805-1.172 2.042s-1.798-.293-2.036-1.182a1.67 1.67 0 0 1 1.172-2.043zm-14.658-4.323c1.884-.504 3.004-2.456 2.497-4.349s-2.453-3.024-4.337-2.519-3.004 2.456-2.497 4.35a3.55 3.55 0 0 0 4.337 2.518zm-1.352-5.046a1.67 1.67 0 0 1 2.036 1.183c.239.889-.287 1.805-1.172 2.042s-1.798-.293-2.036-1.182a1.67 1.67 0 0 1 1.172-2.043zm26.564-1.617c1.884-.505 3.005-2.456 2.497-4.35s-2.453-3.024-4.337-2.519-3.004 2.456-2.497 4.35 2.453 3.024 4.337 2.519zm-1.352-5.047c.884-.237 1.798.293 2.036 1.183s-.287 1.805-1.172 2.042-1.798-.293-2.036-1.183.288-1.805 1.172-2.042zm-3.595 12.682c.844-.227 1.55-.77 1.986-1.53s.551-1.646.323-2.495a3.28 3.28 0 0 0-1.527-1.999l-15.429-8.959c-.758-.44-1.64-.558-2.485-.332a3.24 3.24 0 0 0-1.986 1.53 3.28 3.28 0 0 0-.324 2.495c.228.848.77 1.559 1.528 1.998l15.429 8.96c.758.44 1.64.558 2.485.332zm-16.644-13.493c.361-.097.737-.046 1.061.141l15.428 8.96c.324.188.555.491.652.853a1.4 1.4 0 0 1-.138 1.064 1.39 1.39 0 0 1-.847.653c-.36.096-.737.046-1.06-.142l-15.429-8.959a1.39 1.39 0 0 1-.41-.361c-.112-.147-.194-.314-.241-.492-.098-.363-.048-.74.138-1.065s.486-.556.846-.652z"/><path d="M109.722 121.14a3.24 3.24 0 0 0 1.986-1.53l9.018-15.71c.436-.76.552-1.646.324-2.494s-.77-1.559-1.528-1.999c-1.565-.909-3.57-.371-4.471 1.198l-9.018 15.711c-.436.76-.552 1.646-.324 2.495s.77 1.558 1.528 1.998 1.641.557 2.485.331zm7.803-20.243a1.39 1.39 0 0 1 1.06.141c.16.092.299.215.411.361s.194.313.241.492a1.4 1.4 0 0 1-.138 1.064l-9.018 15.711a1.38 1.38 0 0 1-1.907.511c-.159-.092-.299-.215-.411-.361s-.194-.314-.241-.492c-.097-.362-.048-.74.138-1.064l9.018-15.711a1.39 1.39 0 0 1 .847-.652z"/><path d="M116.288 120.938l7.963-13.873-13.832-8.033-7.963 13.873 13.832 8.033zm5.4-13.186l-6.091 10.61-10.579-6.143 6.091-10.611 10.579 6.144zm-1.649 22.461c-1.435-2.54-2.135-5.018-2.152-5.079l.889-.238s2.996 9.655 10.565 9.173l-2.663 1.719c-2.498-.323-4.732-2.197-6.639-5.575z"/><path d="M117.72 125.178l-.165.047c.007.026.725 2.59 2.204 5.207 1.825 3.231 4.037 5.189 6.426 5.703l-2.055 1.611c-4.805-2.938-6.965-12.303-6.987-12.401l-.168.033.745-.2z"/><path d="M116.054 125.625l.753-.202c.043.188.641 2.73 1.852 5.531 1.462 3.383 3.234 5.801 5.167 7.064-.843.779-1.479 1.55-1.609 2.182.001 0-3.453-2.337-6.163-14.575zm-6.827-31.048c.334-.089.532-.434.442-.769l-1.44-5.373c-.09-.335-.433-.535-.767-.445s-.531.434-.441.769l1.439 5.373c.09.335.433.535.767.445zm-87.9-76.522c3.072-.7 6.123 1.23 6.816 4.31a3.48 3.48 0 0 1 .072.638 3.45 3.45 0 0 1 .513-.385c2.711-1.62 6.207-.728 7.814 1.982 1.61 2.717.715 6.224-1.99 7.84-.175.105-.371.195-.583.27.192.112.368.231.523.369a5.71 5.71 0 0 1 .507 8.063 5.75 5.75 0 0 1-.59.583 3.51 3.51 0 0 1 .876.355c.238.121.458.282.666.469 1.475 1.35 1.584 3.643.24 5.131a2.09 2.09 0 0 1-.306.274 1.8 1.8 0 0 1 .386.124 3.63 3.63 0 0 1 1.812 4.796 3.62 3.62 0 0 1-4.79 1.824c-.118-.052-.236-.124-.351-.205a1.86 1.86 0 0 1 .001.412c-.217 1.998-2.009 3.438-3.995 3.22a3.63 3.63 0 0 1-1.888-.79c-.978-1.846-1.439-3.977-1.211-6.19l.033-.266a.46.46 0 0 0 .202.117c.119.032.246.014.352-.047a.47.47 0 0 0 .231-.404l1.953-.673c.085.152.194.292.326.413a1.62 1.62 0 0 0 .576.339l-.588 1.916c-.074.003-.147.023-.212.061-.107.062-.184.164-.216.283a.47.47 0 0 0 .046.354.46.46 0 0 0 .282.216c.119.032.246.016.353-.046a.47.47 0 0 0 .049-.776l.595-1.938.043.007c.057.004.117.003.176.003l.032 2.047a.47.47 0 0 0-.242.669c.061.107.163.185.282.217s.247.015.353-.047a.47.47 0 0 0 .171-.637c-.056-.098-.148-.171-.254-.207l-.032-2.072a1.63 1.63 0 0 0 .891-.503c.036-.04.069-.083.1-.126l1.634 1.149a.47.47 0 0 0 .044.359c.061.107.164.185.282.217s.246.014.352-.047a.47.47 0 0 0 .171-.637c-.061-.107-.163-.185-.282-.217s-.247-.015-.353.047c-.012.007-.023.016-.034.023l-1.654-1.162c.033-.069.06-.139.083-.21l1.948.599a.47.47 0 0 0 .061.21c.062.107.163.184.282.216s.246.015.352-.046a.47.47 0 0 0 .171-.637c-.061-.107-.163-.185-.282-.217s-.246-.014-.352.047a.47.47 0 0 0-.142.126l-1.973-.607a1.65 1.65 0 0 0-.11-.803l1.874-.994a.47.47 0 0 0 .194.11c.119.032.246.015.352-.046a.47.47 0 0 0 .171-.637c-.061-.107-.163-.185-.282-.217a.46.46 0 0 0-.352.047.47.47 0 0 0-.229.467l-1.871.994a1.52 1.52 0 0 0-.119-.161l1.477-1.522c.024.011.048.022.074.029.119.032.246.014.352-.047a.47.47 0 0 0 .171-.637c-.061-.107-.163-.185-.282-.217s-.246-.014-.352.047a.47.47 0 0 0-.183.609l-1.476 1.523a1.61 1.61 0 0 0-1.103-.362l-.021.002-.329-1.907a.47.47 0 0 0 .178-.64c-.061-.107-.163-.185-.282-.217s-.247-.015-.353.047a.47.47 0 0 0-.171.637c.061.107.164.184.283.216.013.003.027.003.04.006l.329 1.905c-.082.021-.163.05-.241.083l-.899-1.708c.009-.01.021-.02.029-.031a.47.47 0 0 0 .092-.344.47.47 0 0 0-.059-.172c-.03-.053-.071-.099-.119-.136a.47.47 0 0 0-.163-.08.46.46 0 0 0-.181-.012.47.47 0 0 0-.4.522.47.47 0 0 0 .058.172.46.46 0 0 0 .119.137.47.47 0 0 0 .163.08.46.46 0 0 0 .181.012l.906 1.711a1.68 1.68 0 0 0-.291.253 1.62 1.62 0 0 0-.422 1.082l-1.998.035c-.009-.023-.018-.046-.03-.068-.061-.107-.164-.185-.283-.217s-.246-.014-.352.047-.184.164-.216.283a.47.47 0 0 0 .046.353c.061.107.163.185.282.217a.46.46 0 0 0 .229 0l-.095.425-.022.011a.47.47 0 0 0-.216.284c-.032.119-.016.246.046.353.02.035.046.066.074.095l-.034.27a10.77 10.77 0 0 0 1.211 6.19c-.922-.75-1.454-1.939-1.315-3.212a2.16 2.16 0 0 1 .087-.398 2.07 2.07 0 0 1-.387.125 3.61 3.61 0 0 1-4.276-2.816 2.85 2.85 0 0 1-.06-.397l.043-.033a3.64 3.64 0 0 1 2.877-3.846 2.19 2.19 0 0 1 .405-.039 2.13 2.13 0 0 1-.239-.333 3.61 3.61 0 0 1-.475-1.743 5.68 5.68 0 0 1-4.869.18c-2.89-1.242-4.221-4.605-2.978-7.506a3.04 3.04 0 0 1 .317-.56c-.225.026-.438.029-.641.01-3.131-.286-5.437-3.071-5.146-6.213s3.067-5.46 6.204-5.173c.203.019.413.065.629.128-.091-.207-.163-.41-.206-.609a5.73 5.73 0 0 1 4.308-6.844zm7.111 31.314c.013.074.031.147.054.218l-1.93.666a.46.46 0 0 0-.238-.156c-.108-.029-.223-.016-.323.033l.095-.422a.46.46 0 0 0 .117-.045c.098-.057.171-.15.206-.257l2.018-.035zm-4.272-24.916c-.188-.05-.388-.024-.556.073a.74.74 0 0 0-.269 1.006.73.73 0 0 0 .415.33l.126 3.841a.24.24 0 0 0 .04.124c-.065.017-.129.038-.19.061a.24.24 0 0 0-.004-.16l-1.301-3.604a.74.74 0 0 0 .172-.935c-.097-.169-.258-.291-.445-.342a.73.73 0 0 0-.556.073.74.74 0 0 0-.269 1.006c.097.169.257.292.445.343a.73.73 0 0 0 .192.021l1.303 3.609c.027.071.085.122.152.145a1.82 1.82 0 0 0-.762.982.24.24 0 0 0-.077-.041l-3.68-1.062c-.007-.111-.036-.221-.092-.32a.74.74 0 0 0-.445-.343c-.187-.051-.388-.023-.557.074s-.291.258-.342.446a.74.74 0 0 0 .073.558c.097.169.257.292.445.343s.389.023.557-.074c.092-.053.168-.128.228-.213l3.677 1.061c.045.014.09.012.131 0a1.78 1.78 0 0 0-.002.197.23.23 0 0 0-.144-.039l-3.829.132-.044-.099c-.097-.169-.258-.291-.445-.342a.73.73 0 0 0-.556.073.74.74 0 0 0-.269 1.006.73.73 0 0 0 .445.342c.187.05.388.024.556-.073.16-.093.276-.244.331-.42l3.828-.132c.073-.003.137-.04.18-.093.108.429.362.782.697 1.023a.24.24 0 0 0-.065.064l-2.148 3.182c-.185-.047-.383-.02-.549.076a.74.74 0 0 0-.342.447c-.05.188-.024.389.073.557a.74.74 0 0 0 .445.343c.188.051.389.023.557-.074a.74.74 0 0 0 .269-1.005c-.014-.024-.032-.045-.048-.066l2.15-3.184c.027-.04.039-.086.04-.131l.187.064a.24.24 0 0 0-.086.129l-1.065 3.692a.73.73 0 0 0-.323.096.74.74 0 0 0-.269 1.005c.097.169.257.292.445.343s.388.023.557-.074a.74.74 0 0 0 .06-1.234l1.065-3.691a.24.24 0 0 0-.035-.206 1.81 1.81 0 0 0 .521-.039 1.77 1.77 0 0 0 .668-.306.23.23 0 0 0 .041.075l2.354 3.03a.74.74 0 0 0-.094.206c-.05.188-.024.389.073.557a.74.74 0 0 0 .445.343c.188.051.389.023.557-.074a.74.74 0 0 0 .269-1.005c-.097-.169-.258-.292-.445-.343a.74.74 0 0 0-.42.012l-2.356-3.03c-.028-.035-.065-.06-.105-.076a1.81 1.81 0 0 0 .116-.156c.017.048.048.092.093.122l3.171 2.15a.74.74 0 0 0 .519.892c.188.051.389.023.557-.074a.74.74 0 0 0 .269-1.006c-.097-.169-.258-.291-.445-.342a.73.73 0 0 0-.556.073c-.024.014-.046.032-.069.048l-3.169-2.149c-.061-.041-.136-.052-.203-.033a1.8 1.8 0 0 0 .086-1.069L26.072 31c.028 0 .057-.004.085-.015l3.599-1.313a.73.73 0 0 0 .376.246.74.74 0 0 0 .826-1.079c-.097-.169-.258-.292-.445-.343s-.388-.023-.557.074a.74.74 0 0 0-.341.447.72.72 0 0 0-.023.19l-3.605 1.316a.25.25 0 0 0-.106.078 1.8 1.8 0 0 0-.115-.16c.052 0 .104-.015.149-.049l3.024-2.367a.73.73 0 0 0 .202.094.74.74 0 0 0 .826-1.079c-.097-.169-.258-.292-.445-.343s-.389-.023-.557.074a.74.74 0 0 0-.329.869l-3.023 2.367c-.058.047-.088.114-.091.184a1.79 1.79 0 0 0-1.165-.424c.008-.026.013-.054.011-.083l-.126-3.84c.034-.013.069-.027.101-.046a.74.74 0 0 0 .269-1.006c-.097-.169-.258-.291-.445-.342zm27.102 78.527c.045.014.087.037.124.067s.066.068.088.109a.36.36 0 0 1 .039.134c.004.047 0 .094-.014.139a8.42 8.42 0 0 0-.307 1.866 5.31 5.31 0 0 0 .071 1.187l3.923.004v1.369c2.242.212 3.363 1.54 3.365 3.986l.006 8.957.021-.379.005 2.142c-.001.211-.02.42-.053.625-.182 2.043-1.291 3.158-3.331 3.348l.001 1.369-3.641-.003.001 1.117.958.001v1.307h.019c.098 1.432.481 2.832 1.125 4.116 1.488 2.78 5.166 3.512 5.199 3.518a4.14 4.14 0 0 1-1.897 2.366 3.59 3.59 0 0 1-2.514.541 11.16 11.16 0 0 1-3.334-4.189 16.75 16.75 0 0 1-1.278-6.32l.321-.004h-.325l-.001-1.337h.986l-.003-1.117-3.666-.002v-1.37c-2.066-.199-3.177-1.349-3.335-3.451-.672 1.015-1.705 1.402-3.102 1.168l-.31 1.156-3.034-.813-.252.94.775.208-.302 1.126-.005-.001c-.236 1.209-.234 2.453.01 3.662.626 2.673 3.565 4.115 3.576 4.12a3.58 3.58 0 0 1-2.127 1.563 3.14 3.14 0 0 1-2.236-.11 9.68 9.68 0 0 1-1.831-4.253c-.243-1.87-.12-3.769.362-5.591l.001-.001.3-1.118.785.21.252-.941-3.037-.813.309-1.155c-1.765-.665-2.417-1.946-1.979-3.861l.05-.218 2.414-9.01c.55-2.053 1.788-2.914 3.715-2.588l.309-1.155 2.81.753a5.26 5.26 0 0 1 .222-1.029 7.99 7.99 0 0 1 .747-1.651.37.37 0 0 1 .23-.169c.047-.012.097-.014.145-.007s.095.025.137.05a.36.36 0 0 1 .107.098c.029.039.05.084.062.131s.014.097.007.146-.023.095-.049.136a7.4 7.4 0 0 0-.673 1.486 4.61 4.61 0 0 0-.205 1.005l3.223.863-.31 1.156.113.042c.532-.425 1.236-.678 2.111-.761l-.001-1.37 3.435.002a6 6 0 0 1-.059-1.206 9.06 9.06 0 0 1 .306-2.059.39.39 0 0 1 .178-.2c.081-.043.175-.056.265-.037zM36.04 114.595l2.496 4.309 4.315-2.484-2.496-4.307-4.316 2.482zm11.085 2.594l4.055 4.047 4.051-4.041-4.056-4.046-4.05 4.04zm72.56-97.909a.36.36 0 0 0-.123.067c-.036.03-.067.067-.088.108s-.036.087-.04.134a.36.36 0 0 0 .014.139 8.43 8.43 0 0 1 .307 1.866 5.25 5.25 0 0 1-.071 1.188l-3.922.004-.001 1.369c-2.241.212-3.363 1.54-3.365 3.986l-.006 8.956-.02-.378-.006 2.142a4.06 4.06 0 0 0 .053.625c.182 2.043 1.292 3.158 3.332 3.347l-.001 1.369 3.641-.003-.002 1.116-.958.001v1.307h-.019c-.099 1.432-.481 2.832-1.126 4.116-1.486 2.777-5.158 3.511-5.199 3.519.311.999.988 1.844 1.897 2.365a3.59 3.59 0 0 0 2.513.541 11.15 11.15 0 0 0 3.334-4.189c.832-2.005 1.266-4.15 1.279-6.319l-.319-.005.323.001v-1.338h-.986l.003-1.117 3.667-.002.001-1.371c2.065-.199 3.177-1.348 3.334-3.451.673 1.015 1.705 1.403 3.102 1.169l.31 1.157 3.033-.813.252.94-.775.208.301 1.126.005-.001a9.4 9.4 0 0 1-.01 3.661c-.625 2.674-3.565 4.115-3.576 4.121.484.772 1.245 1.332 2.128 1.563a3.13 3.13 0 0 0 2.236-.111c.946-1.249 1.574-2.709 1.831-4.252a14.54 14.54 0 0 0-.362-5.591l-.001-.001-.3-1.119-.785.21-.251-.939 3.037-.814-.31-1.155c1.761-.655 2.419-1.94 1.98-3.861l-.05-.217-2.415-9.011c-.55-2.052-1.788-2.914-3.715-2.588l-.31-1.155-2.81.753a5.26 5.26 0 0 0-.222-1.029 8.01 8.01 0 0 0-.747-1.651c-.051-.084-.134-.145-.23-.169-.048-.012-.097-.014-.145-.007s-.096.024-.138.05a.37.37 0 0 0-.107.098.38.38 0 0 0-.062.132c-.011.047-.014.097-.006.145a.37.37 0 0 0 .048.137c.279.469.505.968.674 1.487.106.327.174.663.205 1.004l-3.223.864.309 1.156-.113.043c-.532-.425-1.236-.678-2.11-.761l.001-1.37-3.434.002a6.08 6.08 0 0 0 .058-1.207 9.06 9.06 0 0 0-.306-2.058.39.39 0 0 0-.443-.237zm15.229 11.615l-2.497 4.309-4.315-2.483 2.495-4.308 4.317 2.483zm-11.086 2.594l-4.056 4.046-4.049-4.04 4.055-4.047 4.05 4.041zm-100.46 37.45a4.02 4.02 0 0 1 5.556-1.251 2.45 2.45 0 0 1 .355.282 2.46 2.46 0 0 1 .064-.448c.545-2.163 2.736-3.464 4.893-2.913a4.05 4.05 0 0 1 2.922 4.909 2.26 2.26 0 0 1-.156.426c.152-.04.3-.069.446-.077a4.03 4.03 0 0 1 4.28 3.774c.152 2.224-1.53 4.145-3.749 4.286a2.09 2.09 0 0 1-.453-.019 2.43 2.43 0 0 1 .212.402 4.03 4.03 0 0 1-2.242 5.239c-2.064.824-4.408-.191-5.236-2.261-.053-.133-.095-.281-.122-.438a2.18 2.18 0 0 1-.314.326 4.03 4.03 0 0 1-5.674-.533 4.04 4.04 0 0 1 .515-5.682c.11-.092.238-.174.377-.251-.149-.058-.286-.122-.407-.2a4.05 4.05 0 0 1-1.266-5.57zm4.616 1.776a.52.52 0 0 0 .127.951.52.52 0 0 0 .371-.041l1.982 1.856c.024.022.053.033.082.039a1.29 1.29 0 0 0-.067.129.17.17 0 0 0-.08-.079l-2.451-1.15a.52.52 0 0 0-.38-.552.52.52 0 0 0-.634.366.52.52 0 0 0 .866.5l2.454 1.152c.049.022.103.016.148-.007-.068.297-.027.607.11.874-.02.002-.04.008-.058.018l-2.368 1.307a.52.52 0 0 0-.207-.114.52.52 0 0 0-.634.366c-.035.133-.017.276.052.395a.52.52 0 0 0 .709.191.52.52 0 0 0 .249-.535l2.366-1.307a.16.16 0 0 0 .063-.067 1.28 1.28 0 0 0 .102.103.16.16 0 0 0-.094.051l-1.848 1.979-.071-.027a.52.52 0 0 0-.393.051c-.119.069-.206.182-.241.315a.52.52 0 0 0 .367.636.52.52 0 0 0 .589-.74l1.847-1.979c.035-.038.047-.089.041-.138a1.27 1.27 0 0 0 .862.163.17.17 0 0 0 0 .064l.517 2.663a.52.52 0 0 0-.184.706.52.52 0 0 0 .708.191.52.52 0 0 0-.127-.951c-.018-.005-.038-.007-.057-.01l-.516-2.663c-.006-.034-.025-.061-.047-.084a1.25 1.25 0 0 0 .13-.065c-.006.037-.001.076.019.111l1.313 2.375a.52.52 0 0 0 .255.844.52.52 0 0 0 .581-.76.52.52 0 0 0-.536-.252l-1.311-2.374c-.026-.049-.073-.076-.124-.084a1.26 1.26 0 0 0 .243-.281c.097-.153.156-.32.181-.489a.17.17 0 0 0 .059.019l2.691.336a.52.52 0 0 0 .37.392.52.52 0 0 0 .634-.366.52.52 0 0 0-.76-.585.51.51 0 0 0-.204.216l-2.69-.337c-.033-.003-.064.004-.092.017a1.43 1.43 0 0 0-.022-.144.17.17 0 0 0 .111.019l2.656-.509a.52.52 0 0 0 .706.186.52.52 0 0 0 .188-.709.52.52 0 0 0-.708-.191c-.119.069-.206.182-.241.315-.005.019-.008.039-.011.058l-2.656.509a.17.17 0 0 0-.118.09 1.27 1.27 0 0 0-.493-.58 1.47 1.47 0 0 0-.11-.061c.015-.015.03-.03.039-.05l1.142-2.455c.107.011.217-.01.311-.065a.52.52 0 0 0 .189-.709c-.069-.119-.183-.207-.315-.243s-.274-.017-.393.052-.206.181-.241.314a.52.52 0 0 0 .137.501l-1.145 2.458c-.013.03-.015.062-.011.094a1.15 1.15 0 0 0-.143-.023.17.17 0 0 0 .053-.099l.327-2.693c.051-.011.102-.027.148-.054a.52.52 0 0 0 .189-.709c-.069-.119-.183-.207-.316-.243a.52.52 0 0 0-.635.366.52.52 0 0 0 .271.6l-.328 2.692c-.005.052.014.101.048.137-.296.025-.581.152-.796.371a.16.16 0 0 0-.035-.047l-1.98-1.855a.51.51 0 0 0 .028-.075.52.52 0 0 0-.052-.394c-.069-.119-.183-.206-.316-.242a.52.52 0 0 0-.393.051z"/></g><defs><clipPath id="A"><path fill="#fff" d="M0 0h155v155H0z"/></clipPath><path id="B" d="M0 0h11.905v11.905H0z"/><path id="C" d="M11.906 0h11.905v11.905H11.906z"/><path id="D" d="M23.809 0h11.905v11.905H23.809z"/><path id="E" d="M35.715 0H47.62v11.905H35.715z"/><path id="F" d="M47.617 0h11.905v11.905H47.617z"/><path id="G" d="M59.523 0h11.905v11.905H59.523z"/><path id="H" d="M71.43 0h11.905v11.905H71.43z"/><path id="I" d="M83.332 0h11.905v11.905H83.332z"/><path id="J" d="M95.238 0h11.905v11.905H95.238z"/><path id="K" d="M107.145 0h11.905v11.905h-11.905z"/><path id="L" d="M107.145 11.905h11.905V23.81h-11.905z"/></defs></svg>