<svg width="518" height="130" viewBox="0 0 518 130" fill="none" xmlns="http://www.w3.org/2000/svg">
<path d="M122.809 36.2653C122.809 44.0674 117.562 50.3923 111.089 50.3923H77.3703C76.4921 50.3923 75.7801 51.2504 75.7801 52.309C75.7801 53.3676 76.4921 54.2257 77.3703 54.2257H112.207C118.063 54.2257 122.81 59.9476 122.81 67.006V79.7844L122.813 79.788V115.002C122.813 122.804 117.566 129.129 111.093 129.129H11.7238C5.25087 129.129 0.00353175 122.804 0.00353175 115.002V93.9133C0.00353175 86.1111 5.25087 79.7862 11.7238 79.7862H45.1761C46.2022 79.7862 47.0341 78.7835 47.0341 77.5467C47.0341 76.3098 46.2022 75.3071 45.1761 75.3071H10.3392C4.63129 75.3071 0.00412037 69.7298 0.00412037 62.8497V50.3948L0 50.3898V14.1271C0 6.32489 5.24734 0 11.7203 0H111.089C117.562 0 122.809 6.32489 122.809 14.1271V36.2653Z" fill="#52D3FE"/>
<path fill-rule="evenodd" clip-rule="evenodd" d="M383.822 62.9866C383.822 62.989 383.82 62.9909 383.818 62.9909C383.818 62.9909 383.815 62.9928 383.815 62.9952V115.223C383.815 123.025 378.568 129.35 372.095 129.35H270.242C265.141 129.35 261.006 124.366 261.006 118.218V107.09C261.006 107.088 261.005 107.086 261.003 107.086C261.001 107.086 261 107.083 261 107.083V24.1564C261 24.1521 261.003 24.1486 261.007 24.1486C261.01 24.1486 261.013 24.1451 261.013 24.1408V12.0743C261.013 5.40584 265.498 0 271.03 0H372.102C378.575 0 383.822 6.32489 383.822 14.1271V62.9866ZM311.608 62.9909C310.596 62.9909 309.775 63.9801 309.775 65.2003C309.775 66.4205 310.596 67.4097 311.608 67.4097H332.336C333.349 67.4097 334.169 66.4205 334.169 65.2003C334.169 63.9801 333.349 62.9909 332.336 62.9909H311.608Z" fill="#52D3FE"/>
<path d="M253.873 93.4365C253.909 93.4365 253.937 93.4019 253.937 93.3591V14.1273C253.937 6.32509 248.69 0.000189543 242.217 0.000189543L206.961 0C200.488 0 195.241 6.32491 195.241 14.1271V31.3387C195.241 32.584 194.403 33.5935 193.37 33.5935C192.337 33.5935 191.5 32.584 191.5 31.3387V14.1285C191.5 6.32632 186.252 0.00141895 179.779 0.00141895L141.72 0.00160861C135.247 0.00160861 130 6.32651 130 14.1287V93.3598C130 93.4029 130.029 93.4379 130.064 93.4379C130.1 93.4379 130.129 93.4728 130.129 93.5159V115.002C130.129 122.804 135.376 129.129 141.849 129.129L179.779 129.131C186.252 129.131 191.499 122.806 191.499 115.004V97.7922C191.499 96.5469 192.337 95.5374 193.37 95.5374C194.403 95.5374 195.24 96.5469 195.24 97.7922V115.002C195.24 122.805 200.488 129.129 206.961 129.129H242.089C248.562 129.129 253.809 122.804 253.809 115.002V93.5137C253.809 93.471 253.838 93.4365 253.873 93.4365Z" fill="#52D3FE"/>
<path fill-rule="evenodd" clip-rule="evenodd" d="M503.415 0.128906C511.217 0.12892 517.542 5.37577 517.542 11.8486L517.649 91.9092C517.649 98.3822 511.324 103.63 503.521 103.63H486.312C485.066 103.63 484.057 104.467 484.057 105.5V117.867C484.057 124.34 479.013 129.587 469.81 129.587H402.541C394.739 129.587 388.414 124.34 388.414 117.867V11.9775C388.414 5.50478 394.739 0.257929 402.541 0.257812L503.415 0.128906ZM442.833 63C441.821 63 441 63.989 441 65.209C441 66.4292 441.821 67.4189 442.833 67.4189H463.561C464.574 67.4189 465.394 66.4292 465.394 65.209C465.393 63.989 464.573 63 463.561 63H442.833Z" fill="#52D3FE"/>
</svg>
