<svg width="66" height="54" viewBox="0 0 66 54" fill="none" xmlns="http://www.w3.org/2000/svg">
<path d="M35.081 1.31362C34.5304 0.492622 33.6067 0 32.6184 0C31.6297 0 30.7063 0.492622 30.1557 1.31362L18.9467 18.0264L5.18274 2.5268C4.29565 1.52786 2.85014 1.24548 1.65234 1.83708C0.454548 2.42868 -0.199755 3.74823 0.0543544 5.05977L8.01971 46.1712C8.83012 50.354 12.4925 53.375 16.7531 53.375H48.4835C52.744 53.375 56.4064 50.354 57.2168 46.1712L65.1822 5.05977C65.4363 3.74823 64.7821 2.42868 63.5842 1.83708C62.3865 1.24548 60.9409 1.52786 60.0537 2.5268L46.2898 18.0264L35.081 1.31362Z" fill="#2B7FFF"/>
</svg>
