<svg width="638" height="638" viewBox="0 0 638 638" fill="none" xmlns="http://www.w3.org/2000/svg">
<path d="M320.028 0.00195312C322.379 0.00944485 324.516 0.918288 326.114 2.39941C327.777 0.9902 329.952 0.17607 332.301 0.272461C332.979 0.300303 333.658 0.330227 334.335 0.362305C336.685 0.47364 338.779 1.47851 340.311 3.03027C342.034 1.69435 344.245 0.975857 346.589 1.17676C347.267 1.23485 347.944 1.29509 348.621 1.35742C350.962 1.5731 353.01 2.66824 354.471 4.28516C356.252 3.02953 358.491 2.41241 360.822 2.71777C361.498 2.80625 362.173 2.89656 362.847 2.98926C365.175 3.30943 367.172 4.49485 368.559 6.1748C370.394 5.00147 372.657 4.48595 374.972 4.89551C375.643 5.01438 376.314 5.13572 376.984 5.25879C379.296 5.68329 381.237 6.95614 382.547 8.69629C384.433 7.60755 386.717 7.19548 389.01 7.70898C389.676 7.85815 390.341 8.00878 391.006 8.16211C393.295 8.69029 395.175 10.0492 396.405 11.8457C398.339 10.8435 400.639 10.5359 402.906 11.1523C403.565 11.3315 404.224 11.513 404.881 11.6963C407.144 12.3273 408.962 13.7688 410.109 15.6191C412.086 14.7059 414.397 14.5024 416.634 15.2207C417.284 15.4296 417.934 15.6406 418.582 15.8535C420.814 16.5862 422.564 18.1087 423.627 20.0088C425.643 19.1857 427.961 19.0866 430.163 19.9053C430.803 20.1433 431.443 20.3839 432.081 20.626C434.277 21.4587 435.957 23.0589 436.933 25.0049C438.984 24.2737 441.304 24.28 443.467 25.1973C444.096 25.4641 444.724 25.7332 445.351 26.0039C447.507 26.9352 449.113 28.6099 450 30.5986C452.082 29.96 454.402 30.0707 456.521 31.085C457.137 31.3793 457.75 31.6764 458.363 31.9746C460.477 33.0026 462.007 34.7486 462.803 36.7764C464.912 36.2319 467.224 36.4468 469.296 37.5557C469.896 37.877 470.496 38.2004 471.094 38.5254C473.159 39.6477 474.609 41.4615 475.312 43.5234C477.445 43.0739 479.745 43.3917 481.766 44.5928C482.351 44.9408 482.935 45.2909 483.519 45.6426C485.531 46.8562 486.897 48.7333 487.508 50.8242C489.658 50.471 491.941 50.8924 493.905 52.1826C494.475 52.5567 495.043 52.9329 495.61 53.3105C497.566 54.6129 498.846 56.5484 499.362 58.6641C501.526 58.4076 503.788 58.9308 505.692 60.3076C506.245 60.7069 506.796 61.108 507.346 61.5107C509.241 62.8993 510.432 64.8907 510.854 67.0273C513.026 66.868 515.262 67.4916 517.104 68.9521C517.637 69.3757 518.17 69.8007 518.701 70.2275C520.532 71.6993 521.634 73.7415 521.96 75.8945C524.137 75.8326 526.343 76.5558 528.116 78.0967C528.631 78.5436 529.144 78.9922 529.655 79.4424C531.419 80.9944 532.428 83.0836 532.657 85.249C534.835 85.2841 537.007 86.104 538.71 87.7227C539.204 88.1923 539.696 88.664 540.188 89.1367C541.88 90.7656 542.796 92.897 542.929 95.0703C545.102 95.2027 547.234 96.1198 548.863 97.8125C549.336 98.3037 549.808 98.7959 550.277 99.29C551.896 100.993 552.715 103.164 552.75 105.342C554.916 105.571 557.005 106.581 558.558 108.345C559.008 108.856 559.456 109.369 559.903 109.884C561.444 111.657 562.166 113.862 562.104 116.039C564.258 116.365 566.3 117.467 567.772 119.299C568.199 119.83 568.624 120.363 569.048 120.897C570.508 122.738 571.131 124.973 570.972 127.146C573.109 127.567 575.1 128.759 576.489 130.654C576.892 131.204 577.293 131.755 577.692 132.308C579.069 134.212 579.591 136.474 579.335 138.637C581.451 139.153 583.387 140.434 584.689 142.39C585.067 142.957 585.443 143.525 585.817 144.095C587.108 146.059 587.528 148.342 587.175 150.491C589.266 151.102 591.144 152.469 592.357 154.481C592.709 155.065 593.059 155.649 593.407 156.234C594.608 158.255 594.925 160.555 594.476 162.687C596.538 163.39 598.352 164.84 599.475 166.906C599.8 167.504 600.123 168.104 600.444 168.704C601.553 170.776 601.767 173.088 601.223 175.197C603.251 175.993 604.997 177.523 606.025 179.637C606.324 180.25 606.621 180.864 606.915 181.479C607.929 183.599 608.039 185.917 607.4 187.999C609.39 188.886 611.066 190.492 611.997 192.649C612.268 193.276 612.536 193.904 612.803 194.533C613.72 196.696 613.725 199.015 612.994 201.066C614.941 202.042 616.541 203.722 617.374 205.919C617.616 206.557 617.857 207.197 618.095 207.837C618.913 210.039 618.813 212.356 617.99 214.372C619.891 215.435 621.414 217.186 622.146 219.418C622.359 220.066 622.57 220.716 622.779 221.366C623.497 223.603 623.293 225.913 622.38 227.89C624.231 229.037 625.672 230.856 626.304 233.119C626.487 233.776 626.668 234.435 626.848 235.094C627.464 237.361 627.155 239.66 626.153 241.594C627.95 242.824 629.31 244.705 629.838 246.994C629.991 247.659 630.143 248.324 630.292 248.99C630.806 251.283 630.392 253.567 629.303 255.453C631.043 256.763 632.317 258.704 632.741 261.016C632.864 261.686 632.986 262.357 633.104 263.028C633.514 265.342 632.998 267.605 631.825 269.44C633.506 270.828 634.691 272.825 635.011 275.153C635.103 275.827 635.194 276.502 635.282 277.178C635.588 279.509 634.97 281.748 633.714 283.529C635.331 284.99 636.427 287.038 636.643 289.38C636.705 290.056 636.765 290.733 636.823 291.411C637.024 293.755 636.306 295.965 634.971 297.688C636.523 299.22 637.526 301.316 637.638 303.666C637.67 304.344 637.7 305.022 637.728 305.7C637.824 308.049 637.01 310.223 635.601 311.886C637.082 313.484 637.991 315.622 637.998 317.973C637.999 318.315 638 318.657 638 319C638 319.343 637.999 319.686 637.998 320.028C637.991 322.379 637.082 324.516 635.601 326.114C637.01 327.777 637.824 329.952 637.728 332.301C637.7 332.979 637.67 333.658 637.638 334.335C637.526 336.685 636.521 338.779 634.97 340.311C636.306 342.034 637.024 344.245 636.823 346.589C636.765 347.267 636.705 347.944 636.643 348.621C636.427 350.962 635.332 353.01 633.715 354.471C634.97 356.252 635.588 358.491 635.282 360.822C635.194 361.498 635.103 362.173 635.011 362.847C634.691 365.175 633.505 367.172 631.825 368.559C632.999 370.394 633.514 372.657 633.104 374.972C632.986 375.643 632.864 376.314 632.741 376.984C632.317 379.296 631.044 381.237 629.304 382.547C630.392 384.433 630.805 386.717 630.291 389.01C630.142 389.676 629.991 390.341 629.838 391.006C629.31 393.295 627.95 395.175 626.153 396.405C627.156 398.339 627.464 400.639 626.848 402.906C626.668 403.565 626.487 404.224 626.304 404.881C625.673 407.144 624.231 408.962 622.38 410.109C623.293 412.086 623.498 414.397 622.779 416.634C622.57 417.284 622.359 417.934 622.146 418.582C621.414 420.814 619.891 422.564 617.99 423.627C618.813 425.643 618.913 427.961 618.095 430.163C617.857 430.803 617.616 431.443 617.374 432.081C616.541 434.277 614.941 435.957 612.994 436.933C613.725 438.984 613.72 441.304 612.803 443.467C612.536 444.096 612.267 444.724 611.996 445.351C611.065 447.508 609.39 449.113 607.4 450C608.039 452.083 607.929 454.402 606.915 456.521C606.621 457.137 606.324 457.75 606.025 458.363C604.997 460.477 603.251 462.007 601.223 462.803C601.767 464.912 601.553 467.224 600.444 469.296C600.123 469.896 599.8 470.496 599.475 471.094C598.352 473.159 596.538 474.609 594.476 475.312C594.925 477.445 594.608 479.745 593.407 481.766C593.059 482.351 592.709 482.935 592.357 483.519C591.144 485.531 589.266 486.897 587.175 487.508C587.528 489.658 587.108 491.941 585.817 493.905C585.443 494.475 585.067 495.043 584.689 495.61C583.387 497.566 581.451 498.846 579.335 499.362C579.591 501.526 579.069 503.788 577.692 505.692C577.293 506.245 576.892 506.796 576.489 507.346C575.1 509.241 573.109 510.432 570.972 510.854C571.131 513.026 570.508 515.262 569.048 517.104C568.624 517.637 568.199 518.17 567.772 518.701C566.3 520.533 564.258 521.634 562.104 521.96C562.166 524.137 561.444 526.343 559.903 528.116C559.456 528.631 559.008 529.144 558.558 529.655C557.005 531.419 554.916 532.428 552.75 532.657C552.715 534.835 551.896 537.007 550.277 538.71C549.808 539.204 549.336 539.696 548.863 540.188C547.234 541.88 545.102 542.796 542.929 542.929C542.796 545.102 541.88 547.234 540.188 548.863C539.696 549.336 539.204 549.808 538.71 550.277C537.007 551.896 534.835 552.715 532.657 552.75C532.428 554.916 531.419 557.005 529.655 558.558C529.144 559.008 528.631 559.456 528.116 559.903C526.343 561.444 524.137 562.166 521.96 562.104C521.634 564.258 520.533 566.3 518.701 567.772C518.17 568.199 517.637 568.624 517.104 569.048C515.262 570.508 513.026 571.131 510.854 570.972C510.432 573.109 509.241 575.1 507.346 576.489C506.796 576.892 506.245 577.293 505.692 577.692C503.788 579.069 501.526 579.591 499.362 579.335C498.846 581.451 497.566 583.387 495.61 584.689C495.043 585.067 494.475 585.443 493.905 585.817C491.941 587.108 489.658 587.528 487.508 587.175C486.897 589.266 485.531 591.144 483.519 592.357C482.935 592.709 482.351 593.059 481.766 593.407C479.745 594.608 477.445 594.925 475.312 594.476C474.609 596.538 473.159 598.352 471.094 599.475C470.496 599.8 469.896 600.123 469.296 600.444C467.223 601.553 464.911 601.767 462.802 601.223C462.006 603.251 460.477 604.997 458.363 606.025C457.75 606.324 457.136 606.621 456.521 606.915C454.401 607.929 452.082 608.039 450 607.4C449.113 609.39 447.508 611.066 445.351 611.997C444.724 612.268 444.096 612.536 443.467 612.803C441.304 613.72 438.984 613.725 436.933 612.994C435.957 614.941 434.278 616.541 432.081 617.374C431.443 617.616 430.803 617.857 430.163 618.095C427.961 618.913 425.643 618.813 423.627 617.99C422.564 619.891 420.814 621.414 418.582 622.146C417.934 622.359 417.284 622.57 416.634 622.779C414.397 623.498 412.086 623.293 410.109 622.38C408.962 624.231 407.144 625.673 404.881 626.304C404.224 626.487 403.565 626.668 402.906 626.848C400.639 627.464 398.339 627.156 396.405 626.153C395.175 627.95 393.295 629.31 391.006 629.838C390.341 629.991 389.676 630.143 389.01 630.292C386.716 630.806 384.432 630.392 382.546 629.303C381.236 631.043 379.296 632.317 376.984 632.741C376.314 632.864 375.643 632.986 374.972 633.104C372.657 633.514 370.394 632.998 368.559 631.825C367.172 633.505 365.175 634.691 362.847 635.011C362.173 635.103 361.498 635.194 360.822 635.282C358.491 635.588 356.251 634.97 354.47 633.714C353.009 635.331 350.961 636.427 348.62 636.643C347.944 636.705 347.267 636.765 346.589 636.823C344.245 637.024 342.034 636.306 340.311 634.971C338.779 636.522 336.684 637.526 334.334 637.638C333.656 637.67 332.978 637.7 332.3 637.728C329.951 637.824 327.776 637.01 326.113 635.601C324.515 637.082 322.378 637.991 320.027 637.998C319.685 637.999 319.343 638 319 638C318.657 638 318.314 637.999 317.972 637.998C315.621 637.991 313.483 637.082 311.885 635.601C310.223 637.009 308.048 637.824 305.699 637.728C305.021 637.7 304.342 637.67 303.665 637.638C301.315 637.526 299.22 636.522 297.688 634.97C295.965 636.305 293.755 637.024 291.411 636.823C290.733 636.765 290.056 636.705 289.379 636.643C287.038 636.427 284.989 635.332 283.528 633.715C281.747 634.97 279.509 635.588 277.178 635.282C276.502 635.194 275.827 635.103 275.153 635.011C272.825 634.691 270.828 633.505 269.44 631.825C267.605 632.998 265.342 633.514 263.028 633.104C262.357 632.986 261.686 632.864 261.016 632.741C258.704 632.317 256.762 631.044 255.452 629.304C253.566 630.392 251.283 630.804 248.99 630.291C248.324 630.142 247.659 629.991 246.994 629.838C244.705 629.31 242.824 627.95 241.594 626.153C239.66 627.155 237.361 627.464 235.094 626.848C234.435 626.668 233.776 626.487 233.119 626.304C230.856 625.673 229.037 624.231 227.89 622.38C225.913 623.293 223.603 623.498 221.366 622.779C220.716 622.57 220.066 622.359 219.418 622.146C217.186 621.414 215.435 619.891 214.372 617.99C212.356 618.813 210.039 618.913 207.837 618.095C207.197 617.857 206.557 617.616 205.919 617.374C203.722 616.541 202.042 614.941 201.066 612.994C199.015 613.725 196.696 613.72 194.533 612.803C193.904 612.536 193.276 612.267 192.649 611.996C190.492 611.065 188.886 609.39 187.999 607.4C185.917 608.039 183.599 607.929 181.479 606.915C180.864 606.621 180.25 606.324 179.637 606.025C177.523 604.997 175.992 603.251 175.196 601.223C173.087 601.767 170.776 601.553 168.704 600.444C168.104 600.123 167.504 599.8 166.906 599.475C164.84 598.352 163.39 596.538 162.687 594.476C160.555 594.925 158.255 594.608 156.234 593.407C155.649 593.059 155.065 592.709 154.481 592.357C152.469 591.144 151.102 589.266 150.491 587.175C148.342 587.528 146.059 587.107 144.095 585.817C143.525 585.443 142.957 585.067 142.39 584.689C140.434 583.387 139.153 581.451 138.637 579.335C136.474 579.591 134.212 579.069 132.308 577.692C131.755 577.293 131.204 576.892 130.654 576.489C128.759 575.1 127.567 573.109 127.146 570.972C124.973 571.131 122.737 570.508 120.896 569.048C120.363 568.624 119.83 568.199 119.299 567.772C117.467 566.3 116.365 564.258 116.039 562.104C113.862 562.166 111.657 561.444 109.884 559.903C109.369 559.456 108.856 559.008 108.345 558.558C106.581 557.005 105.571 554.916 105.342 552.75C103.164 552.715 100.993 551.896 99.29 550.277C98.7959 549.808 98.3036 549.336 97.8125 548.863C96.1198 547.234 95.2027 545.102 95.0703 542.929C92.897 542.796 90.7656 541.88 89.1367 540.188C88.664 539.696 88.1923 539.204 87.7227 538.71C86.104 537.007 85.2841 534.835 85.249 532.657C83.0836 532.428 80.9944 531.419 79.4424 529.655C78.9922 529.144 78.5436 528.631 78.0967 528.116C76.5558 526.343 75.8326 524.137 75.8945 521.96C73.7414 521.634 71.6993 520.532 70.2275 518.701C69.8007 518.17 69.3757 517.637 68.9521 517.104C67.4916 515.262 66.868 513.026 67.0273 510.854C64.8907 510.432 62.8993 509.241 61.5107 507.346C61.108 506.796 60.7069 506.245 60.3076 505.692C58.9308 503.788 58.4076 501.526 58.6641 499.362C56.5484 498.846 54.613 497.566 53.3105 495.61C52.9329 495.043 52.5567 494.475 52.1826 493.905C50.8923 491.941 50.471 489.658 50.8242 487.508C48.7333 486.897 46.8563 485.531 45.6426 483.519C45.2909 482.935 44.9408 482.351 44.5928 481.766C43.3917 479.745 43.0739 477.445 43.5234 475.312C41.4614 474.609 39.6477 473.159 38.5254 471.094C38.2004 470.496 37.877 469.896 37.5557 469.296C36.4467 467.223 36.2316 464.911 36.7764 462.802C34.7487 462.006 33.0026 460.477 31.9746 458.363C31.6764 457.75 31.3794 457.136 31.085 456.521C30.0709 454.401 29.9601 452.082 30.5986 450C28.6098 449.113 26.9343 447.507 26.0029 445.351C25.7323 444.724 25.464 444.096 25.1973 443.467C24.28 441.304 24.2737 438.984 25.0049 436.933C23.0588 435.957 21.4587 434.277 20.626 432.081C20.3839 431.443 20.1434 430.803 19.9053 430.163C19.0866 427.961 19.1857 425.643 20.0088 423.627C18.1087 422.564 16.5862 420.814 15.8535 418.582C15.6406 417.934 15.4296 417.284 15.2207 416.634C14.5025 414.397 14.7059 412.086 15.6191 410.109C13.7688 408.962 12.3274 407.144 11.6963 404.881C11.513 404.224 11.3315 403.565 11.1523 402.906C10.5358 400.639 10.8435 398.339 11.8457 396.405C10.0492 395.175 8.69035 393.295 8.16211 391.006C8.00879 390.341 7.85717 389.676 7.70801 389.01C7.19441 386.716 7.60811 384.432 8.69727 382.546C6.95695 381.236 5.68331 379.296 5.25879 376.984C5.13571 376.314 5.01439 375.643 4.89551 374.972C4.48588 372.657 5.00151 370.394 6.1748 368.559C4.49475 367.172 3.30944 365.175 2.98926 362.847C2.89656 362.173 2.80625 361.498 2.71777 360.822C2.41236 358.491 3.03008 356.251 4.28613 354.47C2.66903 353.009 1.57307 350.961 1.35742 348.62C1.29511 347.944 1.23483 347.267 1.17676 346.589C0.975886 344.245 1.69372 342.034 3.0293 340.311C1.47763 338.779 0.473558 336.684 0.362305 334.334C0.330226 333.656 0.300304 332.978 0.272461 332.3C0.176091 329.951 0.990038 327.776 2.39941 326.113C0.918397 324.515 0.00937109 322.378 0.00195312 320.027C0.000873251 319.685 0 319.343 0 319C0 318.657 0.000871658 318.314 0.00195312 317.972C0.00944567 315.621 0.918 313.483 2.39941 311.885C0.990497 310.223 0.176081 308.048 0.272461 305.699C0.300303 305.021 0.330227 304.342 0.362305 303.665C0.473652 301.315 1.47823 299.22 3.03027 297.688C1.69466 295.965 0.975881 293.755 1.17676 291.411C1.23485 290.733 1.29509 290.056 1.35742 289.379C1.57312 287.038 2.66797 284.989 4.28516 283.528C3.02984 281.747 2.41244 279.509 2.71777 277.178C2.80625 276.502 2.89656 275.827 2.98926 275.153C3.30946 272.825 4.49459 270.828 6.1748 269.44C5.00179 267.605 4.48601 265.342 4.89551 263.028C5.01438 262.357 5.13573 261.686 5.25879 261.016C5.68333 258.704 6.9559 256.762 8.69629 255.452C7.60787 253.566 7.19554 251.283 7.70898 248.99C7.85815 248.324 8.00878 247.659 8.16211 246.994C8.69033 244.705 10.049 242.824 11.8457 241.594C10.8438 239.66 10.536 237.361 11.1523 235.094C11.3315 234.435 11.513 233.776 11.6963 233.119C12.3274 230.856 13.7686 229.037 15.6191 227.89C14.7062 225.913 14.5025 223.602 15.2207 221.366C15.4296 220.716 15.6406 220.066 15.8535 219.418C16.5862 217.186 18.1085 215.435 20.0088 214.372C19.186 212.356 19.0867 210.038 19.9053 207.837C20.1433 207.197 20.3839 206.557 20.626 205.919C21.4588 203.723 23.0587 202.042 25.0049 201.066C24.274 199.016 24.2801 196.696 25.1973 194.533C25.4641 193.904 25.7332 193.276 26.0039 192.649C26.9353 190.492 28.6097 188.886 30.5986 187.999C29.9604 185.917 30.0711 183.599 31.085 181.479C31.3794 180.864 31.6764 180.25 31.9746 179.637C33.0027 177.523 34.7485 175.992 36.7764 175.196C36.2322 173.087 36.447 170.776 37.5557 168.704C37.877 168.104 38.2004 167.504 38.5254 166.906C39.6477 164.841 41.4613 163.39 43.5234 162.687C43.0742 160.555 43.3919 158.255 44.5928 156.234C44.9408 155.649 45.2909 155.065 45.6426 154.481C46.8563 152.469 48.7332 151.102 50.8242 150.491C50.4713 148.342 50.8925 146.059 52.1826 144.095C52.5567 143.525 52.9329 142.957 53.3105 142.39C54.613 140.434 56.5483 139.153 58.6641 138.637C58.4079 136.474 58.931 134.212 60.3076 132.308C60.7069 131.755 61.108 131.204 61.5107 130.654C62.8994 128.759 64.8907 127.567 67.0273 127.146C66.8682 124.973 67.4918 122.737 68.9521 120.896C69.3757 120.363 69.8007 119.83 70.2275 119.299C71.6993 117.468 73.7414 116.365 75.8945 116.039C75.8329 113.862 76.556 111.657 78.0967 109.884C78.5436 109.369 78.9922 108.856 79.4424 108.345C80.9944 106.581 83.0836 105.571 85.249 105.342C85.2843 103.164 86.1042 100.993 87.7227 99.29C88.1923 98.7959 88.664 98.3036 89.1367 97.8125C90.7657 96.1201 92.897 95.203 95.0703 95.0703C95.203 92.897 96.1201 90.7657 97.8125 89.1367C98.3037 88.664 98.7959 88.1923 99.29 87.7227C100.993 86.1042 103.164 85.2843 105.342 85.249C105.571 83.0835 106.581 80.9944 108.345 79.4424C108.856 78.9922 109.369 78.5436 109.884 78.0967C111.657 76.556 113.862 75.8329 116.039 75.8945C116.365 73.7414 117.468 71.6993 119.299 70.2275C119.83 69.8006 120.363 69.3758 120.897 68.9521C122.738 67.492 124.973 66.8682 127.146 67.0273C127.567 64.8907 128.759 62.8994 130.654 61.5107C131.204 61.108 131.755 60.7069 132.308 60.3076C134.212 58.931 136.474 58.4079 138.637 58.6641C139.153 56.5483 140.434 54.613 142.39 53.3105C142.957 52.9329 143.525 52.5567 144.095 52.1826C146.059 50.8925 148.342 50.4713 150.491 50.8242C151.102 48.7332 152.469 46.8563 154.481 45.6426C155.065 45.2909 155.649 44.9408 156.234 44.5928C158.255 43.3918 160.555 43.0742 162.687 43.5234C163.39 41.4613 164.841 39.6478 166.906 38.5254C167.504 38.2004 168.104 37.877 168.704 37.5557C170.776 36.4468 173.088 36.2319 175.197 36.7764C175.993 34.7486 177.523 33.0026 179.637 31.9746C180.25 31.6764 180.864 31.3794 181.479 31.085C183.599 30.071 185.917 29.9604 187.999 30.5986C188.886 28.6096 190.492 26.9343 192.649 26.0029C193.276 25.7323 193.904 25.464 194.533 25.1973C196.696 24.2801 199.016 24.274 201.066 25.0049C202.042 23.0586 203.723 21.4588 205.919 20.626C206.557 20.3839 207.197 20.1434 207.837 19.9053C210.038 19.0867 212.356 19.1861 214.372 20.0088C215.435 18.1085 217.186 16.5863 219.418 15.8535C220.066 15.6406 220.716 15.4296 221.366 15.2207C223.602 14.5026 225.913 14.7063 227.89 15.6191C229.037 13.7686 230.856 12.3274 233.119 11.6963C233.776 11.513 234.435 11.3315 235.094 11.1523C237.361 10.5359 239.66 10.8438 241.594 11.8457C242.824 10.049 244.705 8.69039 246.994 8.16211C247.659 8.00879 248.324 7.85717 248.99 7.70801C251.283 7.19448 253.567 7.60842 255.453 8.69727C256.763 6.95671 258.704 5.68335 261.016 5.25879C261.686 5.13571 262.357 5.01439 263.028 4.89551C265.342 4.48592 267.605 5.00182 269.44 6.1748C270.828 4.49449 272.825 3.30947 275.153 2.98926C275.827 2.89656 276.502 2.80625 277.178 2.71777C279.509 2.41239 281.748 3.03038 283.529 4.28613C284.99 2.66876 287.038 1.57309 289.38 1.35742C290.056 1.29511 290.733 1.23483 291.411 1.17676C293.755 0.97591 295.965 1.69402 297.688 3.0293C299.22 1.47735 301.316 0.47357 303.666 0.362305C304.344 0.330226 305.022 0.300304 305.7 0.272461C308.049 0.176102 310.223 0.990335 311.886 2.39941C313.484 0.918109 315.622 0.00937191 317.973 0.00195312C318.315 0.000873251 318.657 0 319 0C319.343 0 319.686 0.000871658 320.028 0.00195312ZM229.367 494.422C225.349 492.369 220.446 493.714 218.241 497.497C218.236 497.507 218.231 497.517 218.226 497.526L175.726 571.139C175.72 571.149 175.713 571.158 175.707 571.168C173.513 575.005 174.85 579.847 178.676 581.889C218.892 603.353 263.5 615.306 309.061 616.825C313.398 616.97 316.978 613.44 316.991 609.015V523.964C316.977 519.582 313.402 515.963 308.894 515.731C281.181 514.309 254.078 507.046 229.367 494.422ZM419.736 497.488C417.529 493.712 412.632 492.369 408.616 494.421C383.905 507.046 356.803 514.308 329.09 515.73C324.581 515.962 321.005 519.582 320.991 523.964C320.991 523.973 320.992 523.982 320.992 523.99V608.99C320.992 608.998 320.991 609.007 320.991 609.015C321.005 613.439 324.585 616.969 328.923 616.824C374.483 615.305 419.092 603.352 459.308 581.888C463.131 579.847 464.467 575.012 462.279 571.176C462.272 571.163 462.264 571.15 462.257 571.137L419.757 497.524C419.75 497.512 419.743 497.5 419.736 497.488ZM153.659 426.107C151.213 422.332 146.318 421.042 142.521 423.188C142.501 423.201 142.481 423.214 142.46 423.226L68.8477 465.726C68.8275 465.737 68.8063 465.747 68.7861 465.759C64.9908 467.993 63.74 472.838 66.0264 476.51C90.1221 515.207 122.778 547.862 161.475 571.958C165.156 574.25 170.016 572.986 172.242 569.168C172.248 569.158 172.254 569.148 172.26 569.138L214.76 495.525C214.766 495.515 214.771 495.504 214.777 495.494C216.949 491.694 215.663 486.778 211.877 484.325C188.588 469.237 168.747 449.396 153.659 426.107ZM495.435 423.173C491.642 421.047 486.764 422.338 484.323 426.105C469.235 449.394 449.394 469.235 426.105 484.323C422.322 486.775 421.034 491.686 423.2 495.485C423.208 495.498 423.216 495.511 423.224 495.524L465.724 569.137C465.731 569.149 465.737 569.162 465.744 569.174C467.973 572.986 472.829 574.247 476.508 571.956C515.205 547.86 547.86 515.205 571.956 476.508C574.236 472.847 572.998 468.02 569.229 465.777C569.202 465.762 569.174 465.748 569.147 465.732L495.535 423.232C495.502 423.213 495.468 423.193 495.435 423.173ZM319 139.45C219.837 139.45 139.45 219.837 139.45 319C139.45 418.163 219.837 498.55 319 498.55C418.163 498.55 498.55 418.163 498.55 319C498.55 219.837 418.163 139.45 319 139.45ZM524 321C519.607 321 515.973 324.581 515.741 329.099C514.319 356.811 507.056 383.914 494.432 408.625C492.39 412.622 493.71 417.492 497.447 419.714C497.473 419.728 497.499 419.742 497.524 419.757L571.137 462.257C571.169 462.276 571.202 462.295 571.234 462.314C575.063 464.464 579.866 463.124 581.898 459.316C603.363 419.1 615.315 374.492 616.834 328.932C616.979 324.586 613.436 321 609 321H524ZM113.996 320.994H28.9961C28.9874 320.994 28.9784 320.993 28.9697 320.993C24.5451 321.007 21.0156 324.587 21.1602 328.925C22.6792 374.485 34.632 419.094 56.0967 459.31C58.1334 463.125 62.9529 464.463 66.7852 462.294C66.8052 462.282 66.8255 462.27 66.8457 462.259L140.458 419.759C140.477 419.748 140.496 419.737 140.516 419.726C144.277 417.513 145.611 412.627 143.563 408.618C130.939 383.907 123.676 356.805 122.254 329.092C122.022 324.583 118.402 321.007 114.021 320.993C114.012 320.993 114.004 320.994 113.996 320.994ZM581.897 178.683C579.85 174.847 574.989 173.513 571.146 175.731L497.534 218.231C493.729 220.428 492.373 225.345 494.431 229.374C507.055 254.085 514.318 281.188 515.74 308.9C515.972 313.418 519.606 316.999 523.999 316.999H608.999C613.435 316.999 616.978 313.413 616.833 309.067C615.314 263.507 603.362 218.899 581.897 178.683ZM66.8398 175.722C62.9991 173.51 58.1436 174.845 56.0977 178.678C34.633 218.894 22.6802 263.502 21.1611 309.062C21.0166 313.4 24.5456 316.979 28.9697 316.993H114.021C118.403 316.98 122.023 313.405 122.255 308.896C123.677 281.183 130.94 254.08 143.564 229.369C145.622 225.342 144.266 220.426 140.464 218.229L140.462 218.228L66.8496 175.728C66.8465 175.726 66.843 175.724 66.8398 175.722ZM476.518 66.0322C472.826 63.7338 467.95 65.0096 465.731 68.8516L423.231 142.464C421.035 146.269 422.318 151.205 426.115 153.665C449.404 168.753 469.245 188.594 484.333 211.883C486.793 215.679 491.729 216.963 495.534 214.767L569.146 172.267C569.149 172.265 569.151 172.264 569.153 172.263C572.99 170.043 574.263 165.169 571.966 161.48C547.87 122.784 515.214 90.1279 476.518 66.0322ZM172.252 68.8271C170.028 65.0015 165.163 63.7342 161.479 66.0283C122.782 90.1241 90.126 122.78 66.0303 161.477C63.7337 165.165 65.006 170.036 68.8408 172.257C68.8434 172.258 68.8461 172.26 68.8486 172.262L142.461 214.762C142.463 214.763 142.466 214.765 142.469 214.767C146.273 216.958 151.205 215.673 153.663 211.879C168.751 188.59 188.592 168.749 211.881 153.661C215.677 151.202 216.96 146.267 214.765 142.462L172.265 68.8496C172.26 68.8422 172.256 68.8345 172.252 68.8271ZM328.93 21.1631C324.584 21.0182 320.998 24.5616 320.998 28.998V113.998C320.998 118.391 324.579 122.025 329.097 122.257C356.809 123.679 383.912 130.942 408.623 143.566C412.652 145.624 417.569 144.267 419.766 140.463L462.266 66.8506C464.484 63.0086 463.15 58.1472 459.314 56.0996C419.099 34.635 374.49 22.6822 328.93 21.1631ZM309.065 21.1621C263.505 22.6811 218.897 34.634 178.681 56.0986C174.845 58.1459 173.512 63.0058 175.729 66.8477L218.229 140.46C218.234 140.467 218.238 140.475 218.242 140.482C220.445 144.271 225.351 145.62 229.372 143.565C254.083 130.941 281.186 123.678 308.898 122.256C313.416 122.024 316.997 118.39 316.997 113.997V28.9971C316.997 24.5607 313.411 21.0174 309.065 21.1621Z" fill="#281F30"/>
</svg>
